<svg width="1099" height="364" viewBox="0 0 1099 364" fill="none" xmlns="http://www.w3.org/2000/svg">
<path fill-rule="evenodd" clip-rule="evenodd" d="M201.5 221C224.487 221 245.224 211.365 259.892 195.914C267.792 201.63 277.503 205 288 205C314.51 205 336 183.51 336 157C336 130.49 314.51 109 288 109C283.931 109 279.981 109.506 276.208 110.459C264.302 80.88 235.34 60 201.5 60C157.041 60 121 96.0411 121 140.5C121 143.714 121.188 146.884 121.555 150H98C84.7452 150 74 160.745 74 174C74 187.255 84.7452 198 98 198H145.162C159.681 212.228 179.566 221 201.5 221Z" fill="white"/>
<path fill-rule="evenodd" clip-rule="evenodd" d="M332.5 263C355.487 263 376.224 253.365 390.892 237.914C398.792 243.63 408.503 247 419 247C445.51 247 467 225.51 467 199C467 172.49 445.51 151 419 151C414.931 151 410.981 151.506 407.208 152.459C395.302 122.88 366.34 102 332.5 102C288.041 102 252 138.041 252 182.5C252 185.714 252.188 188.884 252.555 192H229C215.745 192 205 202.745 205 216C205 229.255 215.745 240 229 240H276.162C290.681 254.228 310.566 263 332.5 263Z" fill="white"/>
<path fill-rule="evenodd" clip-rule="evenodd" d="M201.5 302C224.487 302 245.224 292.365 259.892 276.914C267.792 282.63 277.503 286 288 286C314.51 286 336 264.51 336 238C336 211.49 314.51 190 288 190C283.931 190 279.981 190.506 276.208 191.459C264.302 161.88 235.34 141 201.5 141C157.041 141 121 177.041 121 221.5C121 224.714 121.188 227.884 121.555 231H98C84.7452 231 74 241.745 74 255C74 268.255 84.7452 279 98 279H145.162C159.681 293.228 179.566 302 201.5 302Z" fill="white"/>
<path fill-rule="evenodd" clip-rule="evenodd" d="M354.5 344C377.487 344 398.224 334.365 412.892 318.914C420.792 324.63 430.503 328 441 328C467.51 328 489 306.51 489 280C489 253.49 467.51 232 441 232C436.931 232 432.981 232.506 429.208 233.459C417.302 203.88 388.34 183 354.5 183C310.041 183 274 219.041 274 263.5C274 266.714 274.188 269.884 274.555 273H251C237.745 273 227 283.745 227 297C227 310.255 237.745 321 251 321H298.162C312.681 335.228 332.566 344 354.5 344Z" fill="white"/>
<path fill-rule="evenodd" clip-rule="evenodd" d="M354.5 161C377.487 161 398.224 151.365 412.892 135.914C420.792 141.63 430.503 145 441 145C467.51 145 489 123.51 489 97C489 70.4903 467.51 49 441 49C436.931 49 432.981 49.5063 429.208 50.4592C417.302 20.88 388.34 0 354.5 0C310.041 0 274 36.0411 274 80.5C274 83.7141 274.188 86.8843 274.555 90H251C237.745 90 227 100.745 227 114C227 127.255 237.745 138 251 138H298.162C312.681 152.228 332.566 161 354.5 161Z" fill="white"/>
<path fill-rule="evenodd" clip-rule="evenodd" d="M463.5 221C486.487 221 507.224 211.365 521.892 195.914C529.792 201.63 539.503 205 550 205C576.51 205 598 183.51 598 157C598 130.49 576.51 109 550 109C545.931 109 541.981 109.506 538.208 110.459C526.302 80.88 497.34 60 463.5 60C419.041 60 383 96.0411 383 140.5C383 143.714 383.188 146.884 383.555 150H360C346.745 150 336 160.745 336 174C336 187.255 346.745 198 360 198H407.162C421.681 212.228 441.566 221 463.5 221Z" fill="white"/>
<path fill-rule="evenodd" clip-rule="evenodd" d="M563.5 322C586.487 322 607.224 312.365 621.892 296.914C629.792 302.63 639.503 306 650 306C676.51 306 698 284.51 698 258C698 231.49 676.51 210 650 210C645.931 210 641.981 210.506 638.208 211.459C626.302 181.88 597.34 161 563.5 161C519.041 161 483 197.041 483 241.5C483 244.714 483.188 247.884 483.555 251H460C446.745 251 436 261.745 436 275C436 288.255 446.745 299 460 299H507.162C521.681 313.228 541.566 322 563.5 322Z" fill="white"/>
<path fill-rule="evenodd" clip-rule="evenodd" d="M496.5 281C519.487 281 540.224 271.365 554.892 255.914C562.792 261.63 572.503 265 583 265C609.51 265 631 243.51 631 217C631 190.49 609.51 169 583 169C578.931 169 574.981 169.506 571.208 170.459C559.302 140.88 530.34 120 496.5 120C452.041 120 416 156.041 416 200.5C416 203.714 416.188 206.884 416.555 210H393C379.745 210 369 220.745 369 234C369 247.255 379.745 258 393 258H440.162C454.681 272.228 474.566 281 496.5 281Z" fill="white"/>
<path fill-rule="evenodd" clip-rule="evenodd" d="M540.5 182C563.487 182 584.224 172.365 598.892 156.914C606.792 162.63 616.503 166 627 166C653.51 166 675 144.51 675 118C675 91.4903 653.51 70 627 70C622.931 70 618.981 70.5063 615.208 71.4592C603.302 41.88 574.34 21 540.5 21C496.041 21 460 57.0411 460 101.5C460 104.714 460.188 107.884 460.555 111H437C423.745 111 413 121.745 413 135C413 148.255 423.745 159 437 159H484.162C498.681 173.228 518.566 182 540.5 182Z" fill="white"/>
<path fill-rule="evenodd" clip-rule="evenodd" d="M734.5 344C757.487 344 778.224 334.365 792.892 318.914C800.792 324.63 810.503 328 821 328C847.51 328 869 306.51 869 280C869 253.49 847.51 232 821 232C816.931 232 812.981 232.506 809.208 233.459C797.302 203.88 768.34 183 734.5 183C690.041 183 654 219.041 654 263.5C654 266.714 654.188 269.884 654.555 273H631C617.745 273 607 283.745 607 297C607 310.255 617.745 321 631 321H678.162C692.681 335.228 712.566 344 734.5 344Z" fill="white"/>
<path fill-rule="evenodd" clip-rule="evenodd" d="M858.5 281C881.487 281 902.224 271.365 916.892 255.914C924.792 261.63 934.503 265 945 265C971.51 265 993 243.51 993 217C993 190.49 971.51 169 945 169C940.931 169 936.981 169.506 933.208 170.459C921.302 140.88 892.34 120 858.5 120C814.041 120 778 156.041 778 200.5C778 203.714 778.188 206.884 778.555 210H755C741.745 210 731 220.745 731 234C731 247.255 741.745 258 755 258H802.162C816.681 272.228 836.566 281 858.5 281Z" fill="white"/>
<path fill-rule="evenodd" clip-rule="evenodd" d="M933.5 241C956.487 241 977.224 231.365 991.892 215.914C999.792 221.63 1009.5 225 1020 225C1046.51 225 1068 203.51 1068 177C1068 150.49 1046.51 129 1020 129C1015.93 129 1011.98 129.506 1008.21 130.459C996.302 100.88 967.34 80 933.5 80C889.041 80 853 116.041 853 160.5C853 163.714 853.188 166.884 853.555 170H830C816.745 170 806 180.745 806 194C806 207.255 816.745 218 830 218H877.162C891.681 232.228 911.566 241 933.5 241Z" fill="white"/>
<path fill-rule="evenodd" clip-rule="evenodd" d="M827.5 182C850.487 182 871.224 172.365 885.892 156.914C893.792 162.63 903.503 166 914 166C940.51 166 962 144.51 962 118C962 91.4903 940.51 70 914 70C909.931 70 905.981 70.5063 902.208 71.4592C890.302 41.88 861.34 21 827.5 21C783.041 21 747 57.0411 747 101.5C747 104.714 747.188 107.884 747.555 111H724C710.745 111 700 121.745 700 135C700 148.255 710.745 159 724 159H771.162C785.681 173.228 805.566 182 827.5 182Z" fill="white"/>
<path fill-rule="evenodd" clip-rule="evenodd" d="M656.5 248C679.487 248 700.224 238.365 714.892 222.914C722.792 228.63 732.503 232 743 232C769.51 232 791 210.51 791 184C791 157.49 769.51 136 743 136C738.931 136 734.981 136.506 731.208 137.459C719.302 107.88 690.34 87 656.5 87C612.041 87 576 123.041 576 167.5C576 170.714 576.188 173.884 576.555 177H553C539.745 177 529 187.745 529 201C529 214.255 539.745 225 553 225H600.162C614.681 239.228 634.566 248 656.5 248Z" fill="white"/>
<path fill-rule="evenodd" clip-rule="evenodd" d="M671.5 182C694.487 182 715.224 172.365 729.892 156.914C737.792 162.63 747.503 166 758 166C784.51 166 806 144.51 806 118C806 91.4903 784.51 70 758 70C753.931 70 749.981 70.5063 746.208 71.4592C734.302 41.88 705.34 21 671.5 21C627.041 21 591 57.0411 591 101.5C591 104.714 591.188 107.884 591.555 111H568C554.745 111 544 121.745 544 135C544 148.255 554.745 159 568 159H615.162C629.681 173.228 649.566 182 671.5 182Z" fill="white"/>
<path d="M226.469 157.578C226.885 156.849 227.406 156.406 228.031 156.25C228.656 156.042 229.255 155.938 229.828 155.938C230.714 155.938 231.755 157.188 232.953 159.688C234.151 162.188 235.401 165.443 236.703 169.453C238.057 173.464 239.411 177.995 240.766 183.047C242.12 188.099 243.344 193.203 244.438 198.359C244.438 198.464 244.438 198.568 244.438 198.672C244.49 198.724 244.516 198.802 244.516 198.906C244.516 199.74 244.177 200.443 243.5 201.016C242.823 201.589 242.042 201.875 241.156 201.875C240.583 201.875 240.089 201.693 239.672 201.328C239.255 201.016 238.969 200.443 238.812 199.609C238.552 198.099 238.109 196.25 237.484 194.062C236.859 191.875 236.26 189.531 235.688 187.031C234.542 187.135 233.188 187.24 231.625 187.344C230.115 187.396 228.552 187.422 226.938 187.422C226.104 187.422 225.297 187.422 224.516 187.422C223.786 187.37 223.057 187.318 222.328 187.266C221.495 189.922 220.74 192.318 220.062 194.453C219.385 196.589 218.865 198.307 218.5 199.609C218.24 200.495 217.849 201.094 217.328 201.406C216.859 201.719 216.339 201.875 215.766 201.875C215.036 201.875 214.333 201.589 213.656 201.016C213.031 200.495 212.719 199.87 212.719 199.141C212.719 199.036 212.771 198.776 212.875 198.359L219.359 177.5C219.984 175.417 220.635 173.359 221.312 171.328C221.99 169.245 222.641 167.318 223.266 165.547C223.891 163.776 224.464 162.214 224.984 160.859C225.557 159.453 226.052 158.359 226.469 157.578ZM229.438 165.781C228.604 168.021 227.719 170.547 226.781 173.359C225.844 176.172 224.932 178.984 224.047 181.797C224.62 181.797 225.219 181.823 225.844 181.875C226.469 181.875 227.094 181.875 227.719 181.875C230.062 181.875 232.224 181.797 234.203 181.641C233.422 178.828 232.615 176.042 231.781 173.281C230.948 170.521 230.167 168.021 229.438 165.781ZM265.688 160.547C265.271 160.078 265.062 159.557 265.062 158.984C265.062 158.151 265.401 157.474 266.078 156.953C266.807 156.38 267.562 156.094 268.344 156.094C269.125 156.094 269.88 156.51 270.609 157.344C271.339 158.125 271.99 159.062 272.562 160.156C273.135 161.198 273.63 162.214 274.047 163.203C274.464 164.193 274.75 164.87 274.906 165.234C275.01 167.943 275.089 170.573 275.141 173.125C275.193 175.625 275.219 178.099 275.219 180.547C275.219 182.266 275.219 183.958 275.219 185.625C275.219 187.24 275.167 188.88 275.062 190.547C275.167 191.849 275.531 193.021 276.156 194.062C276.833 195.104 277.458 196.172 278.031 197.266C278.188 197.578 278.266 197.891 278.266 198.203C278.266 199.036 277.901 199.688 277.172 200.156C276.495 200.677 275.792 200.938 275.062 200.938C273.292 200.938 271.781 199.271 270.531 195.938C268.24 198.073 265.479 199.141 262.25 199.141C258.344 199.141 255.245 198.099 252.953 196.016C250.714 193.88 249.594 190.703 249.594 186.484C249.594 184.557 249.984 182.839 250.766 181.328C251.547 179.818 252.51 178.568 253.656 177.578C254.854 176.536 256.156 175.755 257.562 175.234C259.021 174.714 260.427 174.453 261.781 174.453C263.031 174.557 264.333 174.818 265.688 175.234C267.042 175.651 268.318 176.224 269.516 176.953C269.516 175.182 269.49 173.438 269.438 171.719C269.385 169.948 269.281 168.255 269.125 166.641C268.656 165.651 268.161 164.661 267.641 163.672C267.12 162.682 266.469 161.641 265.688 160.547ZM269.281 187.031V186.406C269.229 184.583 268.448 183.047 266.938 181.797C265.479 180.547 263.526 179.922 261.078 179.922C260.557 179.922 259.958 180.052 259.281 180.312C258.656 180.573 258.031 180.99 257.406 181.562C256.833 182.083 256.339 182.786 255.922 183.672C255.557 184.557 255.375 185.599 255.375 186.797C255.375 188.776 255.948 190.443 257.094 191.797C258.24 193.151 259.802 193.828 261.781 193.828C262.667 193.828 263.526 193.672 264.359 193.359C265.245 192.995 266.026 192.5 266.703 191.875C267.432 191.25 268.005 190.521 268.422 189.688C268.891 188.854 269.177 187.969 269.281 187.031ZM293.109 175.625C293.422 175.365 293.865 175.234 294.438 175.234C296.208 175.391 297.797 175.885 299.203 176.719C300.609 177.5 301.781 178.49 302.719 179.688C303.708 180.833 304.438 182.109 304.906 183.516C305.427 184.922 305.688 186.276 305.688 187.578V187.969C306.052 189.167 306.443 190.104 306.859 190.781C307.276 191.458 307.719 191.979 308.188 192.344C308.708 192.708 309.203 192.943 309.672 193.047C310.193 193.099 310.714 193.125 311.234 193.125C311.703 193.125 312.198 193.021 312.719 192.812C313.292 192.604 313.943 192.5 314.672 192.5C315.349 192.5 315.896 192.786 316.312 193.359C316.781 193.88 317.016 194.453 317.016 195.078C317.016 195.651 316.833 196.172 316.469 196.641C316.156 197.057 315.714 197.422 315.141 197.734C314.62 197.995 314.021 198.203 313.344 198.359C312.719 198.464 312.094 198.516 311.469 198.516C309.49 198.516 307.771 198.099 306.312 197.266C304.854 196.432 303.708 195.469 302.875 194.375C301.833 195.573 300.583 196.51 299.125 197.188C297.667 197.865 296.13 198.203 294.516 198.203C293.057 198.203 291.599 197.969 290.141 197.5C288.682 197.031 287.38 196.328 286.234 195.391C285.089 194.453 284.151 193.307 283.422 191.953C282.693 190.547 282.328 188.906 282.328 187.031C282.328 185.938 282.51 184.792 282.875 183.594C283.292 182.396 283.891 181.25 284.672 180.156C285.453 179.062 286.391 178.099 287.484 177.266C288.63 176.432 289.958 175.859 291.469 175.547H291.938C292.458 175.547 292.849 175.573 293.109 175.625ZM293.578 180.547C291.755 181.12 290.427 181.953 289.594 183.047C288.76 184.089 288.344 185.312 288.344 186.719C288.344 188.385 288.76 189.818 289.594 191.016C290.479 192.161 292.094 192.734 294.438 192.734C295.792 192.734 296.99 192.24 298.031 191.25C299.073 190.26 299.594 188.932 299.594 187.266C299.594 186.12 299.411 185.182 299.047 184.453C298.734 183.672 298.292 183.047 297.719 182.578C297.198 182.057 296.573 181.667 295.844 181.406C295.115 181.094 294.359 180.807 293.578 180.547ZM356 213.047C354.49 214.245 352.745 214.844 350.766 214.844C349.047 214.844 347.328 214.427 345.609 213.594C343.943 212.76 342.615 211.641 341.625 210.234C341.417 210.026 341.312 209.74 341.312 209.375C341.312 208.698 341.547 207.969 342.016 207.188C342.536 206.458 343.135 206.094 343.812 206.094C344.073 206.094 344.333 206.172 344.594 206.328C345.531 207.161 346.495 207.812 347.484 208.281C348.526 208.75 349.516 208.984 350.453 208.984C352.172 208.984 353.552 207.891 354.594 205.703C355.688 203.568 356.547 200.417 357.172 196.25C356.391 196.51 355.583 196.719 354.75 196.875C353.969 196.979 353.135 197.031 352.25 197.031C351.469 197.031 350.401 196.979 349.047 196.875C347.693 196.771 346.339 196.302 344.984 195.469C343.63 194.635 342.458 193.333 341.469 191.562C340.479 189.74 339.984 187.109 339.984 183.672C339.984 182.734 340.01 181.771 340.062 180.781C340.115 179.792 340.167 178.828 340.219 177.891C340.323 176.901 340.427 175.99 340.531 175.156C340.635 174.271 340.74 173.516 340.844 172.891C340.948 172.057 341.26 171.458 341.781 171.094C342.302 170.729 342.875 170.547 343.5 170.547C344.229 170.547 344.906 170.755 345.531 171.172C346.156 171.589 346.469 172.161 346.469 172.891C346.469 173.828 346.365 174.974 346.156 176.328C345.948 177.682 345.844 179.089 345.844 180.547C345.844 182.578 345.896 184.297 346 185.703C346.104 187.057 346.391 188.177 346.859 189.062C347.328 189.896 348.005 190.495 348.891 190.859C349.828 191.224 351.078 191.406 352.641 191.406C353.578 191.406 354.411 191.276 355.141 191.016C355.922 190.755 356.833 190.495 357.875 190.234C358.188 186.328 358.344 182.396 358.344 178.438C358.344 176.667 358.318 174.974 358.266 173.359C358.214 171.693 358.135 170.182 358.031 168.828C358.031 168.255 358.318 167.786 358.891 167.422C359.464 167.005 360.167 166.797 361 166.797C361.625 166.797 362.224 166.927 362.797 167.188C363.37 167.396 363.76 167.786 363.969 168.359C364.073 169.557 364.151 170.833 364.203 172.188C364.255 173.49 364.281 174.818 364.281 176.172C364.281 179.818 364.099 183.594 363.734 187.5C363.422 191.354 362.901 195 362.172 198.438C361.495 201.875 360.635 204.896 359.594 207.5C358.552 210.104 357.354 211.953 356 213.047ZM379.359 175.625C379.672 175.365 380.115 175.234 380.688 175.234C382.458 175.391 384.047 175.885 385.453 176.719C386.859 177.5 388.031 178.49 388.969 179.688C389.958 180.833 390.688 182.109 391.156 183.516C391.677 184.922 391.938 186.276 391.938 187.578V187.969C392.302 189.167 392.693 190.104 393.109 190.781C393.526 191.458 393.969 191.979 394.438 192.344C394.958 192.708 395.453 192.943 395.922 193.047C396.443 193.099 396.964 193.125 397.484 193.125C397.953 193.125 398.448 193.021 398.969 192.812C399.542 192.604 400.193 192.5 400.922 192.5C401.599 192.5 402.146 192.786 402.562 193.359C403.031 193.88 403.266 194.453 403.266 195.078C403.266 195.651 403.083 196.172 402.719 196.641C402.406 197.057 401.964 197.422 401.391 197.734C400.87 197.995 400.271 198.203 399.594 198.359C398.969 198.464 398.344 198.516 397.719 198.516C395.74 198.516 394.021 198.099 392.562 197.266C391.104 196.432 389.958 195.469 389.125 194.375C388.083 195.573 386.833 196.51 385.375 197.188C383.917 197.865 382.38 198.203 380.766 198.203C379.307 198.203 377.849 197.969 376.391 197.5C374.932 197.031 373.63 196.328 372.484 195.391C371.339 194.453 370.401 193.307 369.672 191.953C368.943 190.547 368.578 188.906 368.578 187.031C368.578 185.938 368.76 184.792 369.125 183.594C369.542 182.396 370.141 181.25 370.922 180.156C371.703 179.062 372.641 178.099 373.734 177.266C374.88 176.432 376.208 175.859 377.719 175.547H378.188C378.708 175.547 379.099 175.573 379.359 175.625ZM379.828 180.547C378.005 181.12 376.677 181.953 375.844 183.047C375.01 184.089 374.594 185.312 374.594 186.719C374.594 188.385 375.01 189.818 375.844 191.016C376.729 192.161 378.344 192.734 380.688 192.734C382.042 192.734 383.24 192.24 384.281 191.25C385.323 190.26 385.844 188.932 385.844 187.266C385.844 186.12 385.661 185.182 385.297 184.453C384.984 183.672 384.542 183.047 383.969 182.578C383.448 182.057 382.823 181.667 382.094 181.406C381.365 181.094 380.609 180.807 379.828 180.547ZM407.25 177.109C406.833 176.536 406.625 176.016 406.625 175.547C406.625 174.766 406.99 174.089 407.719 173.516C408.448 172.943 409.203 172.656 409.984 172.656C410.505 172.656 411 172.839 411.469 173.203C411.938 173.516 412.328 173.906 412.641 174.375C413.005 174.844 413.318 175.365 413.578 175.938C413.891 176.458 414.151 176.927 414.359 177.344C415.349 176.979 416.521 176.667 417.875 176.406C419.281 176.094 420.766 175.938 422.328 175.938C423.005 175.938 423.839 175.99 424.828 176.094C425.818 176.146 426.781 176.406 427.719 176.875C428.708 177.292 429.594 177.995 430.375 178.984C431.208 179.922 431.833 181.276 432.25 183.047C432.458 183.984 432.562 185.13 432.562 186.484C432.615 187.839 432.667 189.245 432.719 190.703C432.667 191.953 432.641 193.229 432.641 194.531C432.641 195.781 432.536 196.927 432.328 197.969C432.172 198.958 431.885 199.766 431.469 200.391C431.052 201.016 430.427 201.328 429.594 201.328C428.708 201.328 427.953 201.068 427.328 200.547C426.755 200.026 426.469 199.349 426.469 198.516C426.469 197.005 426.547 195.286 426.703 193.359C426.859 191.432 426.938 189.688 426.938 188.125C426.938 186.719 426.807 185.573 426.547 184.688C426.339 183.802 426.026 183.125 425.609 182.656C425.193 182.135 424.646 181.797 423.969 181.641C423.292 181.484 422.536 181.406 421.703 181.406C420.818 181.406 419.906 181.536 418.969 181.797C418.083 182.005 417.198 182.24 416.312 182.5C416.365 183.49 416.391 184.505 416.391 185.547C416.443 186.589 416.469 187.682 416.469 188.828C416.469 190.651 416.469 192.344 416.469 193.906C416.469 195.417 416.365 196.745 416.156 197.891C416 198.984 415.661 199.844 415.141 200.469C414.62 201.146 413.865 201.484 412.875 201.484C412.146 201.38 411.547 201.12 411.078 200.703C410.609 200.286 410.375 199.74 410.375 199.062C410.375 197.5 410.427 195.859 410.531 194.141C410.635 192.422 410.688 190.573 410.688 188.594C410.688 187.604 410.661 186.719 410.609 185.938C410.609 185.156 410.583 184.401 410.531 183.672C409.958 182.786 409.438 181.797 408.969 180.703C408.552 179.557 407.979 178.359 407.25 177.109ZM452.25 210.859H452.719C454.542 210.859 456.104 210.312 457.406 209.219C458.76 208.177 459.438 206.745 459.438 204.922C459.438 203.672 459.229 202.63 458.812 201.797C458.396 200.964 457.875 200.312 457.25 199.844C456.625 199.323 455.974 198.984 455.297 198.828C454.672 198.62 454.125 198.516 453.656 198.516C451.729 198.62 450.062 199.219 448.656 200.312C447.302 201.458 446.625 203.099 446.625 205.234C446.625 206.745 447.12 208.047 448.109 209.141C449.151 210.234 450.531 210.807 452.25 210.859ZM452.562 216.016C452.354 216.016 452.146 216.016 451.938 216.016C451.781 216.068 451.625 216.094 451.469 216.094C449.854 216.094 448.37 215.807 447.016 215.234C445.714 214.661 444.568 213.88 443.578 212.891C442.641 211.953 441.911 210.833 441.391 209.531C440.87 208.229 440.609 206.875 440.609 205.469C440.609 204.01 440.844 202.656 441.312 201.406C441.781 200.208 442.406 199.115 443.188 198.125C443.969 197.083 444.854 196.198 445.844 195.469C446.885 194.74 447.953 194.167 449.047 193.75C448.682 193.073 448.396 192.344 448.188 191.562C447.979 190.781 447.875 189.948 447.875 189.062C447.875 188.698 447.901 188.359 447.953 188.047C448.005 187.682 448.083 187.292 448.188 186.875C446.469 186.198 445.01 185.13 443.812 183.672C442.615 182.214 442.016 180.417 442.016 178.281C442.016 176.979 442.276 175.599 442.797 174.141C443.37 172.63 444.229 171.276 445.375 170.078C446.052 169.401 446.651 168.672 447.172 167.891C447.693 167.109 447.927 165.833 447.875 164.062V162.422C447.875 161.745 448.135 161.25 448.656 160.938C449.177 160.573 449.802 160.391 450.531 160.391C451.885 160.391 452.797 160.755 453.266 161.484C453.734 162.161 453.969 163.099 453.969 164.297C453.969 165.495 453.839 166.562 453.578 167.5C454.828 167.656 456 168.073 457.094 168.75C458.24 169.375 459.229 170.156 460.062 171.094C460.896 171.979 461.547 172.969 462.016 174.062C462.536 175.156 462.797 176.25 462.797 177.344C462.797 178.802 462.536 180.13 462.016 181.328C461.495 182.526 460.818 183.568 459.984 184.453C459.151 185.286 458.214 185.99 457.172 186.562C456.13 187.083 455.089 187.422 454.047 187.578C453.995 187.839 453.943 188.099 453.891 188.359C453.891 188.568 453.891 188.802 453.891 189.062C453.891 189.792 453.995 190.495 454.203 191.172C454.411 191.797 454.698 192.396 455.062 192.969C456.208 193.125 457.38 193.464 458.578 193.984C459.776 194.505 460.87 195.234 461.859 196.172C462.901 197.057 463.734 198.151 464.359 199.453C465.036 200.755 465.375 202.266 465.375 203.984C465.375 206.016 465.062 207.76 464.438 209.219C463.812 210.677 462.927 211.875 461.781 212.812C460.635 213.75 459.281 214.479 457.719 215C456.156 215.521 454.438 215.859 452.562 216.016ZM451.078 172.266L449.281 174.297C448.865 174.818 448.578 175.391 448.422 176.016C448.266 176.641 448.188 177.37 448.188 178.203C448.188 179.245 448.604 180.182 449.438 181.016C450.271 181.849 451.469 182.266 453.031 182.266C453.396 182.266 453.786 182.161 454.203 181.953C454.62 181.693 455.01 181.38 455.375 181.016C455.74 180.599 456.052 180.156 456.312 179.688C456.573 179.167 456.703 178.62 456.703 178.047C456.703 176.38 456.208 175.104 455.219 174.219C454.281 173.333 452.901 172.682 451.078 172.266ZM492.562 177.109C492.146 176.536 491.938 176.016 491.938 175.547C491.938 174.766 492.302 174.089 493.031 173.516C493.76 172.943 494.516 172.656 495.297 172.656C495.818 172.656 496.286 172.812 496.703 173.125C497.172 173.438 497.562 173.828 497.875 174.297C498.188 174.714 498.474 175.182 498.734 175.703C498.995 176.172 499.229 176.589 499.438 176.953C500.323 176.641 501.26 176.38 502.25 176.172C503.24 175.964 504.333 175.859 505.531 175.859C506.573 175.859 507.667 175.964 508.812 176.172C510.01 176.328 511.234 176.771 512.484 177.5C513.526 176.979 514.724 176.589 516.078 176.328C517.432 176.068 518.839 175.938 520.297 175.938C521.286 175.938 522.406 176.016 523.656 176.172C524.906 176.328 526.078 176.849 527.172 177.734C528.266 178.568 529.177 179.896 529.906 181.719C530.635 183.49 531 185.99 531 189.219C531 190.781 530.974 192.292 530.922 193.75C530.87 195.208 530.714 196.51 530.453 197.656C530.245 198.75 529.906 199.635 529.438 200.312C528.969 200.99 528.318 201.328 527.484 201.328C526.807 201.328 526.13 201.12 525.453 200.703C524.828 200.286 524.516 199.714 524.516 198.984C524.516 198.099 524.62 197.005 524.828 195.703C525.036 194.401 525.141 193.073 525.141 191.719C525.141 190 525.115 188.49 525.062 187.188C525.01 185.885 524.802 184.818 524.438 183.984C524.073 183.099 523.526 182.448 522.797 182.031C522.068 181.615 521.026 181.406 519.672 181.406C518.266 181.406 516.911 181.641 515.609 182.109L515.844 183.047C516 183.828 516.104 184.766 516.156 185.859C516.26 186.901 516.312 188.021 516.312 189.219C516.312 190.521 516.312 191.901 516.312 193.359C516.312 194.766 516.234 196.068 516.078 197.266C515.922 198.411 515.609 199.375 515.141 200.156C514.724 200.938 514.073 201.328 513.188 201.328C512.302 201.328 511.547 201.068 510.922 200.547C510.349 200.026 510.062 199.349 510.062 198.516C510.062 197.057 510.141 195.365 510.297 193.438C510.453 191.51 510.531 189.766 510.531 188.203C510.531 186.12 510.167 184.479 509.438 183.281C508.708 182.031 507.276 181.406 505.141 181.406C503.943 181.406 502.771 181.615 501.625 182.031V182.109C501.677 183.464 501.703 184.922 501.703 186.484C501.755 187.995 501.781 189.531 501.781 191.094C501.781 192.5 501.781 193.828 501.781 195.078C501.781 196.328 501.677 197.422 501.469 198.359C501.26 199.297 500.896 200.052 500.375 200.625C499.906 201.198 499.177 201.484 498.188 201.484C497.458 201.38 496.859 201.12 496.391 200.703C495.922 200.286 495.688 199.74 495.688 199.062C495.688 197.5 495.74 195.859 495.844 194.141C495.948 192.422 496 190.573 496 188.594C496 187.604 495.974 186.719 495.922 185.938C495.922 185.156 495.896 184.401 495.844 183.672C495.271 182.786 494.75 181.797 494.281 180.703C493.865 179.557 493.292 178.359 492.562 177.109ZM546.859 175.625C547.172 175.365 547.615 175.234 548.188 175.234C549.958 175.391 551.547 175.885 552.953 176.719C554.359 177.5 555.531 178.49 556.469 179.688C557.458 180.833 558.188 182.109 558.656 183.516C559.177 184.922 559.438 186.276 559.438 187.578V187.969C559.802 189.167 560.193 190.104 560.609 190.781C561.026 191.458 561.469 191.979 561.938 192.344C562.458 192.708 562.953 192.943 563.422 193.047C563.943 193.099 564.464 193.125 564.984 193.125C565.453 193.125 565.948 193.021 566.469 192.812C567.042 192.604 567.693 192.5 568.422 192.5C569.099 192.5 569.646 192.786 570.062 193.359C570.531 193.88 570.766 194.453 570.766 195.078C570.766 195.651 570.583 196.172 570.219 196.641C569.906 197.057 569.464 197.422 568.891 197.734C568.37 197.995 567.771 198.203 567.094 198.359C566.469 198.464 565.844 198.516 565.219 198.516C563.24 198.516 561.521 198.099 560.062 197.266C558.604 196.432 557.458 195.469 556.625 194.375C555.583 195.573 554.333 196.51 552.875 197.188C551.417 197.865 549.88 198.203 548.266 198.203C546.807 198.203 545.349 197.969 543.891 197.5C542.432 197.031 541.13 196.328 539.984 195.391C538.839 194.453 537.901 193.307 537.172 191.953C536.443 190.547 536.078 188.906 536.078 187.031C536.078 185.938 536.26 184.792 536.625 183.594C537.042 182.396 537.641 181.25 538.422 180.156C539.203 179.062 540.141 178.099 541.234 177.266C542.38 176.432 543.708 175.859 545.219 175.547H545.688C546.208 175.547 546.599 175.573 546.859 175.625ZM547.328 180.547C545.505 181.12 544.177 181.953 543.344 183.047C542.51 184.089 542.094 185.312 542.094 186.719C542.094 188.385 542.51 189.818 543.344 191.016C544.229 192.161 545.844 192.734 548.188 192.734C549.542 192.734 550.74 192.24 551.781 191.25C552.823 190.26 553.344 188.932 553.344 187.266C553.344 186.12 553.161 185.182 552.797 184.453C552.484 183.672 552.042 183.047 551.469 182.578C550.948 182.057 550.323 181.667 549.594 181.406C548.865 181.094 548.109 180.807 547.328 180.547ZM575.844 191.328C575.844 189.557 575.844 187.969 575.844 186.562C575.896 185.104 575.922 183.724 575.922 182.422C575.974 181.068 576 179.688 576 178.281C576.052 176.823 576.104 175.182 576.156 173.359C576.156 172.318 576.521 171.562 577.25 171.094C578.031 170.573 578.839 170.312 579.672 170.312C580.297 170.312 580.844 170.547 581.312 171.016C581.833 171.432 582.094 172.057 582.094 172.891C582.094 174.714 582.068 176.38 582.016 177.891C582.016 179.349 581.99 180.807 581.938 182.266C581.885 183.672 581.833 185.104 581.781 186.562C581.781 188.021 581.781 189.635 581.781 191.406C581.781 192.344 581.938 193.151 582.25 193.828C582.615 194.505 583.057 195.078 583.578 195.547C584.151 196.016 584.75 196.354 585.375 196.562C586 196.771 586.599 196.875 587.172 196.875C588.266 196.875 589.49 196.458 590.844 195.625C592.25 194.74 593.448 193.62 594.438 192.266C594.333 190.339 594.255 188.594 594.203 187.031C594.151 185.417 594.125 183.932 594.125 182.578C594.125 181.172 594.125 179.714 594.125 178.203C594.125 176.693 594.229 175.339 594.438 174.141C594.646 172.891 595.01 171.875 595.531 171.094C596.052 170.312 596.859 169.922 597.953 169.922C598.63 170.026 599.255 170.312 599.828 170.781C600.401 171.198 600.688 171.797 600.688 172.578C600.531 174.453 600.375 176.484 600.219 178.672C600.062 180.807 599.984 183.099 599.984 185.547C599.984 186.797 600.01 188.125 600.062 189.531C600.115 190.885 600.219 192.266 600.375 193.672C600.583 194.193 600.896 194.818 601.312 195.547C601.781 196.276 602.224 197.005 602.641 197.734C603.109 198.464 603.5 199.167 603.812 199.844C604.125 200.469 604.281 200.964 604.281 201.328C604.281 202.161 603.943 202.865 603.266 203.438C602.589 204.01 601.859 204.297 601.078 204.297C600.609 204.297 600.115 204.089 599.594 203.672C599.125 203.307 598.682 202.839 598.266 202.266C597.849 201.693 597.458 201.094 597.094 200.469C596.781 199.896 596.547 199.375 596.391 198.906C595.036 200.052 593.474 200.99 591.703 201.719C589.932 202.448 588.083 202.812 586.156 202.812C584.49 202.812 583.005 202.474 581.703 201.797C580.453 201.12 579.385 200.234 578.5 199.141C577.615 198.047 576.938 196.823 576.469 195.469C576.052 194.062 575.844 192.682 575.844 191.328ZM633.5 198.984C633.76 196.953 633.943 194.844 634.047 192.656C634.203 190.469 634.281 188.281 634.281 186.094V175.859C634.281 175.234 634.568 174.766 635.141 174.453C635.714 174.089 636.365 173.906 637.094 173.906C637.719 173.906 638.318 174.036 638.891 174.297C639.464 174.557 639.854 174.974 640.062 175.547C640.115 177.005 640.141 178.698 640.141 180.625C640.193 182.552 640.219 184.557 640.219 186.641C640.219 188.828 640.141 191.042 639.984 193.281C639.828 195.469 639.698 197.578 639.594 199.609C639.438 200.495 639.073 201.146 638.5 201.562C637.927 202.031 637.302 202.266 636.625 202.266C635.896 202.266 635.193 202.031 634.516 201.562C633.839 201.094 633.5 200.365 633.5 199.375V198.984ZM641.469 163.047C641.208 164.349 640.688 165.339 639.906 166.016C639.125 166.693 638.188 167.031 637.094 167.031C636.677 167.031 636.182 166.979 635.609 166.875C635.036 166.719 634.49 166.484 633.969 166.172C633.5 165.807 633.083 165.339 632.719 164.766C632.354 164.141 632.172 163.359 632.172 162.422C632.172 160.755 632.641 159.557 633.578 158.828C634.516 158.047 635.74 157.656 637.25 157.656C638.76 157.656 639.854 158.125 640.531 159.062C641.208 160 641.547 161.068 641.547 162.266C641.547 162.37 641.521 162.5 641.469 162.656C641.469 162.812 641.469 162.943 641.469 163.047ZM649.125 163.359C648.76 162.943 648.578 162.422 648.578 161.797C648.578 161.016 648.865 160.339 649.438 159.766C650.01 159.141 650.74 158.828 651.625 158.828C652.406 158.828 653.135 159.141 653.812 159.766C654.49 160.391 655.089 161.172 655.609 162.109C656.182 163.047 656.651 164.062 657.016 165.156C657.38 166.25 657.667 167.266 657.875 168.203C658.24 169.87 658.474 172.005 658.578 174.609C658.734 177.161 658.839 179.87 658.891 182.734C662.276 181.849 664.75 180.781 666.312 179.531C667.927 178.229 668.734 176.719 668.734 175C668.734 174.167 668.526 173.333 668.109 172.5C667.693 171.667 667.484 170.964 667.484 170.391C667.484 169.766 667.823 169.245 668.5 168.828C669.177 168.359 669.932 168.125 670.766 168.125C671.234 168.125 671.703 168.255 672.172 168.516C672.641 168.724 673.057 169.115 673.422 169.688C673.839 170.208 674.177 170.938 674.438 171.875C674.698 172.812 674.828 173.984 674.828 175.391C674.828 176.693 674.594 177.891 674.125 178.984C673.656 180.078 673.031 181.068 672.25 181.953C671.469 182.839 670.583 183.62 669.594 184.297C668.656 184.974 667.693 185.521 666.703 185.938C668.891 187.188 670.818 188.828 672.484 190.859C674.151 192.891 675.323 195.234 676 197.891C676 197.995 676 198.099 676 198.203C676.052 198.307 676.078 198.411 676.078 198.516C676.078 199.349 675.74 199.974 675.062 200.391C674.438 200.859 673.734 201.094 672.953 201.094C671.964 201.094 671.365 200.755 671.156 200.078C670.427 198.203 669.594 196.641 668.656 195.391C667.771 194.089 666.807 193.021 665.766 192.188C664.724 191.354 663.604 190.729 662.406 190.312C661.26 189.844 660.062 189.479 658.812 189.219C658.708 190.573 658.656 191.979 658.656 193.438C658.656 194.896 658.552 196.25 658.344 197.5C658.188 198.75 657.849 199.766 657.328 200.547C656.859 201.38 656.104 201.797 655.062 201.797C654.333 201.797 653.708 201.589 653.188 201.172C652.667 200.807 652.406 200.234 652.406 199.453C652.406 196.797 652.484 193.932 652.641 190.859C652.849 187.786 652.953 184.74 652.953 181.719C652.953 179.479 652.875 177.37 652.719 175.391C652.615 173.359 652.354 171.536 651.938 169.922L651 166.953C650.844 166.432 650.583 165.885 650.219 165.312C649.906 164.688 649.542 164.036 649.125 163.359ZM683.188 191.328C683.188 189.557 683.188 187.969 683.188 186.562C683.24 185.104 683.266 183.724 683.266 182.422C683.318 181.068 683.344 179.688 683.344 178.281C683.396 176.823 683.448 175.182 683.5 173.359C683.5 172.318 683.865 171.562 684.594 171.094C685.375 170.573 686.182 170.312 687.016 170.312C687.641 170.312 688.188 170.547 688.656 171.016C689.177 171.432 689.438 172.057 689.438 172.891C689.438 174.714 689.411 176.38 689.359 177.891C689.359 179.349 689.333 180.807 689.281 182.266C689.229 183.672 689.177 185.104 689.125 186.562C689.125 188.021 689.125 189.635 689.125 191.406C689.125 192.344 689.281 193.151 689.594 193.828C689.958 194.505 690.401 195.078 690.922 195.547C691.495 196.016 692.094 196.354 692.719 196.562C693.344 196.771 693.943 196.875 694.516 196.875C695.609 196.875 696.833 196.458 698.188 195.625C699.594 194.74 700.792 193.62 701.781 192.266C701.677 190.339 701.599 188.594 701.547 187.031C701.495 185.417 701.469 183.932 701.469 182.578C701.469 181.172 701.469 179.714 701.469 178.203C701.469 176.693 701.573 175.339 701.781 174.141C701.99 172.891 702.354 171.875 702.875 171.094C703.396 170.312 704.203 169.922 705.297 169.922C705.974 170.026 706.599 170.312 707.172 170.781C707.745 171.198 708.031 171.797 708.031 172.578C707.875 174.453 707.719 176.484 707.562 178.672C707.406 180.807 707.328 183.099 707.328 185.547C707.328 186.797 707.354 188.125 707.406 189.531C707.458 190.885 707.562 192.266 707.719 193.672C707.927 194.193 708.24 194.818 708.656 195.547C709.125 196.276 709.568 197.005 709.984 197.734C710.453 198.464 710.844 199.167 711.156 199.844C711.469 200.469 711.625 200.964 711.625 201.328C711.625 202.161 711.286 202.865 710.609 203.438C709.932 204.01 709.203 204.297 708.422 204.297C707.953 204.297 707.458 204.089 706.938 203.672C706.469 203.307 706.026 202.839 705.609 202.266C705.193 201.693 704.802 201.094 704.438 200.469C704.125 199.896 703.891 199.375 703.734 198.906C702.38 200.052 700.818 200.99 699.047 201.719C697.276 202.448 695.427 202.812 693.5 202.812C691.833 202.812 690.349 202.474 689.047 201.797C687.797 201.12 686.729 200.234 685.844 199.141C684.958 198.047 684.281 196.823 683.812 195.469C683.396 194.062 683.188 192.682 683.188 191.328ZM723.812 191.328C723.865 190.286 723.891 189.271 723.891 188.281C723.891 187.292 723.917 186.328 723.969 185.391L724.203 179.922H721.625C720.896 179.922 720.245 179.922 719.672 179.922C719.151 179.87 718.682 179.766 718.266 179.609C717.849 179.401 717.536 179.089 717.328 178.672C717.12 178.255 717.016 177.656 717.016 176.875C717.016 176.25 717.146 175.703 717.406 175.234C717.719 174.714 718.188 174.453 718.812 174.453C719.438 174.453 720.219 174.479 721.156 174.531C722.146 174.583 723.24 174.583 724.438 174.531C724.438 171.667 724.385 168.828 724.281 166.016C724.177 163.203 724.125 160.208 724.125 157.031C724.125 156.146 724.438 155.521 725.062 155.156C725.688 154.74 726.365 154.531 727.094 154.531C728.188 154.531 728.969 154.948 729.438 155.781C729.906 156.562 730.219 157.526 730.375 158.672C730.531 159.818 730.557 161.016 730.453 162.266C730.401 163.464 730.375 164.453 730.375 165.234C730.375 168.516 730.297 171.589 730.141 174.453C732.641 174.453 735.01 174.427 737.25 174.375C739.542 174.271 741.312 174.141 742.562 173.984C743.188 174.089 743.63 174.427 743.891 175C744.203 175.521 744.359 176.094 744.359 176.719C744.359 177.604 744.151 178.255 743.734 178.672C743.37 179.089 742.641 179.401 741.547 179.609C740.505 179.818 739.047 179.922 737.172 179.922C735.349 179.922 732.953 179.922 729.984 179.922C729.88 181.641 729.802 183.411 729.75 185.234C729.75 187.057 729.75 188.984 729.75 191.016C729.75 193.047 730.115 194.609 730.844 195.703C731.573 196.745 732.51 197.266 733.656 197.266C734.906 197.266 736.026 196.823 737.016 195.938C738.005 195 738.969 193.776 739.906 192.266C740.219 191.745 740.74 191.484 741.469 191.484C742.198 191.484 742.849 191.745 743.422 192.266C744.047 192.786 744.359 193.411 744.359 194.141C744.359 195.182 743.995 196.224 743.266 197.266C742.536 198.255 741.599 199.167 740.453 200C739.307 200.833 738.031 201.51 736.625 202.031C735.219 202.552 733.865 202.812 732.562 202.812C730.948 202.812 729.568 202.474 728.422 201.797C727.328 201.12 726.443 200.234 725.766 199.141C725.089 198.047 724.594 196.823 724.281 195.469C723.969 194.062 723.812 192.682 723.812 191.328ZM782.328 175.625C782.641 175.365 783.083 175.234 783.656 175.234C785.427 175.391 787.016 175.885 788.422 176.719C789.828 177.5 791 178.49 791.938 179.688C792.927 180.833 793.656 182.109 794.125 183.516C794.646 184.922 794.906 186.276 794.906 187.578V187.969C795.271 189.167 795.661 190.104 796.078 190.781C796.495 191.458 796.938 191.979 797.406 192.344C797.927 192.708 798.422 192.943 798.891 193.047C799.411 193.099 799.932 193.125 800.453 193.125C800.922 193.125 801.417 193.021 801.938 192.812C802.51 192.604 803.161 192.5 803.891 192.5C804.568 192.5 805.115 192.786 805.531 193.359C806 193.88 806.234 194.453 806.234 195.078C806.234 195.651 806.052 196.172 805.688 196.641C805.375 197.057 804.932 197.422 804.359 197.734C803.839 197.995 803.24 198.203 802.562 198.359C801.938 198.464 801.312 198.516 800.688 198.516C798.708 198.516 796.99 198.099 795.531 197.266C794.073 196.432 792.927 195.469 792.094 194.375C791.052 195.573 789.802 196.51 788.344 197.188C786.885 197.865 785.349 198.203 783.734 198.203C782.276 198.203 780.818 197.969 779.359 197.5C777.901 197.031 776.599 196.328 775.453 195.391C774.307 194.453 773.37 193.307 772.641 191.953C771.911 190.547 771.547 188.906 771.547 187.031C771.547 185.938 771.729 184.792 772.094 183.594C772.51 182.396 773.109 181.25 773.891 180.156C774.672 179.062 775.609 178.099 776.703 177.266C777.849 176.432 779.177 175.859 780.688 175.547H781.156C781.677 175.547 782.068 175.573 782.328 175.625ZM782.797 180.547C780.974 181.12 779.646 181.953 778.812 183.047C777.979 184.089 777.562 185.312 777.562 186.719C777.562 188.385 777.979 189.818 778.812 191.016C779.698 192.161 781.312 192.734 783.656 192.734C785.01 192.734 786.208 192.24 787.25 191.25C788.292 190.26 788.812 188.932 788.812 187.266C788.812 186.12 788.63 185.182 788.266 184.453C787.953 183.672 787.51 183.047 786.938 182.578C786.417 182.057 785.792 181.667 785.062 181.406C784.333 181.094 783.578 180.807 782.797 180.547ZM810.219 163.359C809.854 162.943 809.672 162.422 809.672 161.797C809.672 161.016 809.958 160.339 810.531 159.766C811.104 159.141 811.833 158.828 812.719 158.828C813.5 158.828 814.229 159.141 814.906 159.766C815.583 160.391 816.182 161.172 816.703 162.109C817.276 163.047 817.745 164.062 818.109 165.156C818.474 166.25 818.76 167.266 818.969 168.203C819.333 169.87 819.568 172.005 819.672 174.609C819.828 177.161 819.932 179.87 819.984 182.734C823.37 181.849 825.844 180.781 827.406 179.531C829.021 178.229 829.828 176.719 829.828 175C829.828 174.167 829.62 173.333 829.203 172.5C828.786 171.667 828.578 170.964 828.578 170.391C828.578 169.766 828.917 169.245 829.594 168.828C830.271 168.359 831.026 168.125 831.859 168.125C832.328 168.125 832.797 168.255 833.266 168.516C833.734 168.724 834.151 169.115 834.516 169.688C834.932 170.208 835.271 170.938 835.531 171.875C835.792 172.812 835.922 173.984 835.922 175.391C835.922 176.693 835.688 177.891 835.219 178.984C834.75 180.078 834.125 181.068 833.344 181.953C832.562 182.839 831.677 183.62 830.688 184.297C829.75 184.974 828.786 185.521 827.797 185.938C829.984 187.188 831.911 188.828 833.578 190.859C835.245 192.891 836.417 195.234 837.094 197.891C837.094 197.995 837.094 198.099 837.094 198.203C837.146 198.307 837.172 198.411 837.172 198.516C837.172 199.349 836.833 199.974 836.156 200.391C835.531 200.859 834.828 201.094 834.047 201.094C833.057 201.094 832.458 200.755 832.25 200.078C831.521 198.203 830.688 196.641 829.75 195.391C828.865 194.089 827.901 193.021 826.859 192.188C825.818 191.354 824.698 190.729 823.5 190.312C822.354 189.844 821.156 189.479 819.906 189.219C819.802 190.573 819.75 191.979 819.75 193.438C819.75 194.896 819.646 196.25 819.438 197.5C819.281 198.75 818.943 199.766 818.422 200.547C817.953 201.38 817.198 201.797 816.156 201.797C815.427 201.797 814.802 201.589 814.281 201.172C813.76 200.807 813.5 200.234 813.5 199.453C813.5 196.797 813.578 193.932 813.734 190.859C813.943 187.786 814.047 184.74 814.047 181.719C814.047 179.479 813.969 177.37 813.812 175.391C813.708 173.359 813.448 171.536 813.031 169.922L812.094 166.953C811.938 166.432 811.677 165.885 811.312 165.312C811 164.688 810.635 164.036 810.219 163.359ZM844.281 191.328C844.281 189.557 844.281 187.969 844.281 186.562C844.333 185.104 844.359 183.724 844.359 182.422C844.411 181.068 844.438 179.688 844.438 178.281C844.49 176.823 844.542 175.182 844.594 173.359C844.594 172.318 844.958 171.562 845.688 171.094C846.469 170.573 847.276 170.312 848.109 170.312C848.734 170.312 849.281 170.547 849.75 171.016C850.271 171.432 850.531 172.057 850.531 172.891C850.531 174.714 850.505 176.38 850.453 177.891C850.453 179.349 850.427 180.807 850.375 182.266C850.323 183.672 850.271 185.104 850.219 186.562C850.219 188.021 850.219 189.635 850.219 191.406C850.219 192.344 850.375 193.151 850.688 193.828C851.052 194.505 851.495 195.078 852.016 195.547C852.589 196.016 853.188 196.354 853.812 196.562C854.438 196.771 855.036 196.875 855.609 196.875C856.703 196.875 857.927 196.458 859.281 195.625C860.688 194.74 861.885 193.62 862.875 192.266C862.771 190.339 862.693 188.594 862.641 187.031C862.589 185.417 862.562 183.932 862.562 182.578C862.562 181.172 862.562 179.714 862.562 178.203C862.562 176.693 862.667 175.339 862.875 174.141C863.083 172.891 863.448 171.875 863.969 171.094C864.49 170.312 865.297 169.922 866.391 169.922C867.068 170.026 867.693 170.312 868.266 170.781C868.839 171.198 869.125 171.797 869.125 172.578C868.969 174.453 868.812 176.484 868.656 178.672C868.5 180.807 868.422 183.099 868.422 185.547C868.422 186.797 868.448 188.125 868.5 189.531C868.552 190.885 868.656 192.266 868.812 193.672C869.021 194.193 869.333 194.818 869.75 195.547C870.219 196.276 870.661 197.005 871.078 197.734C871.547 198.464 871.938 199.167 872.25 199.844C872.562 200.469 872.719 200.964 872.719 201.328C872.719 202.161 872.38 202.865 871.703 203.438C871.026 204.01 870.297 204.297 869.516 204.297C869.047 204.297 868.552 204.089 868.031 203.672C867.562 203.307 867.12 202.839 866.703 202.266C866.286 201.693 865.896 201.094 865.531 200.469C865.219 199.896 864.984 199.375 864.828 198.906C863.474 200.052 861.911 200.99 860.141 201.719C858.37 202.448 856.521 202.812 854.594 202.812C852.927 202.812 851.443 202.474 850.141 201.797C848.891 201.12 847.823 200.234 846.938 199.141C846.052 198.047 845.375 196.823 844.906 195.469C844.49 194.062 844.281 192.682 844.281 191.328ZM883.188 155.703C883.917 154.661 885.323 153.75 887.406 152.969C889.49 152.188 891.807 151.797 894.359 151.797C896.391 151.797 898.188 152.109 899.75 152.734C901.365 153.307 902.719 154.141 903.812 155.234C904.906 156.276 905.714 157.5 906.234 158.906C906.807 160.312 907.094 161.823 907.094 163.438C907.094 165.208 906.755 166.875 906.078 168.438C905.453 169.948 904.594 171.302 903.5 172.5C902.406 173.646 901.156 174.635 899.75 175.469C898.344 176.25 896.885 176.797 895.375 177.109V183.828C895.219 184.714 894.802 185.339 894.125 185.703C893.5 186.068 892.849 186.25 892.172 186.25C891.391 186.25 890.766 186.094 890.297 185.781C889.828 185.469 889.594 185.026 889.594 184.453L889.75 177.109C889.75 177.005 889.724 176.901 889.672 176.797C889.672 176.693 889.672 176.589 889.672 176.484C889.672 175.391 889.984 174.531 890.609 173.906C891.234 173.281 891.99 172.786 892.875 172.422C893.76 172.005 894.698 171.641 895.688 171.328C896.677 171.016 897.536 170.625 898.266 170.156C899.151 169.583 899.932 168.828 900.609 167.891C901.339 166.901 901.703 165.677 901.703 164.219C901.703 163.229 901.495 162.292 901.078 161.406C900.714 160.469 900.167 159.661 899.438 158.984C898.76 158.307 897.953 157.786 897.016 157.422C896.13 157.005 895.167 156.797 894.125 156.797C892.615 156.797 891.13 157.135 889.672 157.812C888.266 158.438 887.094 159.193 886.156 160.078C885.896 160.286 885.609 160.391 885.297 160.391C884.672 160.391 884.073 160.052 883.5 159.375C882.927 158.698 882.641 157.995 882.641 157.266C882.641 156.641 882.823 156.12 883.188 155.703ZM889.438 189.922C889.802 189.818 890.167 189.766 890.531 189.766C890.896 189.766 891.26 189.766 891.625 189.766C892.615 189.766 893.604 189.896 894.594 190.156C895.635 190.417 896.573 190.859 897.406 191.484C898.24 192.057 898.917 192.812 899.438 193.75C899.958 194.688 900.219 195.859 900.219 197.266C900.219 199.557 899.411 201.406 897.797 202.812C896.234 204.271 894.125 205 891.469 205C890.74 205 889.984 204.87 889.203 204.609C888.422 204.349 887.719 203.958 887.094 203.438C886.469 202.917 885.948 202.266 885.531 201.484C885.167 200.703 884.984 199.792 884.984 198.75C884.984 197.917 885.193 197.005 885.609 196.016C886.078 195.026 886.625 194.401 887.25 194.141C886.677 193.932 886.391 193.516 886.391 192.891C886.391 192.318 886.651 191.745 887.172 191.172C887.745 190.547 888.5 190.13 889.438 189.922ZM890.219 194.453C890.635 194.766 890.844 195.208 890.844 195.781C890.844 196.198 890.661 196.667 890.297 197.188C889.932 197.708 889.75 198.125 889.75 198.438C889.75 199.01 889.984 199.505 890.453 199.922C890.974 200.286 891.495 200.469 892.016 200.469C892.693 200.469 893.214 200.339 893.578 200.078C893.995 199.87 894.281 199.635 894.438 199.375C894.646 199.062 894.776 198.75 894.828 198.438C894.88 198.125 894.906 197.891 894.906 197.734C894.906 196.432 894.62 195.547 894.047 195.078C893.474 194.609 892.667 194.375 891.625 194.375C891.417 194.375 891.182 194.375 890.922 194.375C890.714 194.375 890.479 194.401 890.219 194.453Z" fill="black"/>
</svg>
