<svg width="1099" height="364" viewBox="0 0 1099 364" fill="none" xmlns="http://www.w3.org/2000/svg">
<path fill-rule="evenodd" clip-rule="evenodd" d="M201.5 221C224.487 221 245.224 211.365 259.892 195.914C267.792 201.63 277.503 205 288 205C314.51 205 336 183.51 336 157C336 130.49 314.51 109 288 109C283.931 109 279.981 109.506 276.208 110.459C264.302 80.88 235.34 60 201.5 60C157.041 60 121 96.0411 121 140.5C121 143.714 121.188 146.884 121.555 150H98C84.7452 150 74 160.745 74 174C74 187.255 84.7452 198 98 198H145.162C159.681 212.228 179.566 221 201.5 221Z" fill="#A359C6"/>
<path fill-rule="evenodd" clip-rule="evenodd" d="M332.5 263C355.487 263 376.224 253.365 390.892 237.914C398.792 243.63 408.503 247 419 247C445.51 247 467 225.51 467 199C467 172.49 445.51 151 419 151C414.931 151 410.981 151.506 407.208 152.459C395.302 122.88 366.34 102 332.5 102C288.041 102 252 138.041 252 182.5C252 185.714 252.188 188.884 252.555 192H229C215.745 192 205 202.745 205 216C205 229.255 215.745 240 229 240H276.162C290.681 254.228 310.566 263 332.5 263Z" fill="#A359C6"/>
<path fill-rule="evenodd" clip-rule="evenodd" d="M201.5 302C224.487 302 245.224 292.365 259.892 276.914C267.792 282.63 277.503 286 288 286C314.51 286 336 264.51 336 238C336 211.49 314.51 190 288 190C283.931 190 279.981 190.506 276.208 191.459C264.302 161.88 235.34 141 201.5 141C157.041 141 121 177.041 121 221.5C121 224.714 121.188 227.884 121.555 231H98C84.7452 231 74 241.745 74 255C74 268.255 84.7452 279 98 279H145.162C159.681 293.228 179.566 302 201.5 302Z" fill="#A359C6"/>
<path fill-rule="evenodd" clip-rule="evenodd" d="M354.5 344C377.487 344 398.224 334.365 412.892 318.914C420.792 324.63 430.503 328 441 328C467.51 328 489 306.51 489 280C489 253.49 467.51 232 441 232C436.931 232 432.981 232.506 429.208 233.459C417.302 203.88 388.34 183 354.5 183C310.041 183 274 219.041 274 263.5C274 266.714 274.188 269.884 274.555 273H251C237.745 273 227 283.745 227 297C227 310.255 237.745 321 251 321H298.162C312.681 335.228 332.566 344 354.5 344Z" fill="#A359C6"/>
<path fill-rule="evenodd" clip-rule="evenodd" d="M354.5 161C377.487 161 398.224 151.365 412.892 135.914C420.792 141.63 430.503 145 441 145C467.51 145 489 123.51 489 97C489 70.4903 467.51 49 441 49C436.931 49 432.981 49.5063 429.208 50.4592C417.302 20.88 388.34 0 354.5 0C310.041 0 274 36.0411 274 80.5C274 83.7141 274.188 86.8843 274.555 90H251C237.745 90 227 100.745 227 114C227 127.255 237.745 138 251 138H298.162C312.681 152.228 332.566 161 354.5 161Z" fill="#A359C6"/>
<path fill-rule="evenodd" clip-rule="evenodd" d="M463.5 221C486.487 221 507.224 211.365 521.892 195.914C529.792 201.63 539.503 205 550 205C576.51 205 598 183.51 598 157C598 130.49 576.51 109 550 109C545.931 109 541.981 109.506 538.208 110.459C526.302 80.88 497.34 60 463.5 60C419.041 60 383 96.0411 383 140.5C383 143.714 383.188 146.884 383.555 150H360C346.745 150 336 160.745 336 174C336 187.255 346.745 198 360 198H407.162C421.681 212.228 441.566 221 463.5 221Z" fill="#A359C6"/>
<path fill-rule="evenodd" clip-rule="evenodd" d="M563.5 322C586.487 322 607.224 312.365 621.892 296.914C629.792 302.63 639.503 306 650 306C676.51 306 698 284.51 698 258C698 231.49 676.51 210 650 210C645.931 210 641.981 210.506 638.208 211.459C626.302 181.88 597.34 161 563.5 161C519.041 161 483 197.041 483 241.5C483 244.714 483.188 247.884 483.555 251H460C446.745 251 436 261.745 436 275C436 288.255 446.745 299 460 299H507.162C521.681 313.228 541.566 322 563.5 322Z" fill="#A359C6"/>
<path fill-rule="evenodd" clip-rule="evenodd" d="M496.5 281C519.487 281 540.224 271.365 554.892 255.914C562.792 261.63 572.503 265 583 265C609.51 265 631 243.51 631 217C631 190.49 609.51 169 583 169C578.931 169 574.981 169.506 571.208 170.459C559.302 140.88 530.34 120 496.5 120C452.041 120 416 156.041 416 200.5C416 203.714 416.188 206.884 416.555 210H393C379.745 210 369 220.745 369 234C369 247.255 379.745 258 393 258H440.162C454.681 272.228 474.566 281 496.5 281Z" fill="#A359C6"/>
<path fill-rule="evenodd" clip-rule="evenodd" d="M540.5 182C563.487 182 584.224 172.365 598.892 156.914C606.792 162.63 616.503 166 627 166C653.51 166 675 144.51 675 118C675 91.4903 653.51 70 627 70C622.931 70 618.981 70.5063 615.208 71.4592C603.302 41.88 574.34 21 540.5 21C496.041 21 460 57.0411 460 101.5C460 104.714 460.188 107.884 460.555 111H437C423.745 111 413 121.745 413 135C413 148.255 423.745 159 437 159H484.162C498.681 173.228 518.566 182 540.5 182Z" fill="#A359C6"/>
<path fill-rule="evenodd" clip-rule="evenodd" d="M734.5 344C757.487 344 778.224 334.365 792.892 318.914C800.792 324.63 810.503 328 821 328C847.51 328 869 306.51 869 280C869 253.49 847.51 232 821 232C816.931 232 812.981 232.506 809.208 233.459C797.302 203.88 768.34 183 734.5 183C690.041 183 654 219.041 654 263.5C654 266.714 654.188 269.884 654.555 273H631C617.745 273 607 283.745 607 297C607 310.255 617.745 321 631 321H678.162C692.681 335.228 712.566 344 734.5 344Z" fill="#A359C6"/>
<path fill-rule="evenodd" clip-rule="evenodd" d="M858.5 281C881.487 281 902.224 271.365 916.892 255.914C924.792 261.63 934.503 265 945 265C971.51 265 993 243.51 993 217C993 190.49 971.51 169 945 169C940.931 169 936.981 169.506 933.208 170.459C921.302 140.88 892.34 120 858.5 120C814.041 120 778 156.041 778 200.5C778 203.714 778.188 206.884 778.555 210H755C741.745 210 731 220.745 731 234C731 247.255 741.745 258 755 258H802.162C816.681 272.228 836.566 281 858.5 281Z" fill="#A359C6"/>
<path fill-rule="evenodd" clip-rule="evenodd" d="M933.5 241C956.487 241 977.224 231.365 991.892 215.914C999.792 221.63 1009.5 225 1020 225C1046.51 225 1068 203.51 1068 177C1068 150.49 1046.51 129 1020 129C1015.93 129 1011.98 129.506 1008.21 130.459C996.302 100.88 967.34 80 933.5 80C889.041 80 853 116.041 853 160.5C853 163.714 853.188 166.884 853.555 170H830C816.745 170 806 180.745 806 194C806 207.255 816.745 218 830 218H877.162C891.681 232.228 911.566 241 933.5 241Z" fill="#A359C6"/>
<path fill-rule="evenodd" clip-rule="evenodd" d="M827.5 182C850.487 182 871.224 172.365 885.892 156.914C893.792 162.63 903.503 166 914 166C940.51 166 962 144.51 962 118C962 91.4903 940.51 70 914 70C909.931 70 905.981 70.5063 902.208 71.4592C890.302 41.88 861.34 21 827.5 21C783.041 21 747 57.0411 747 101.5C747 104.714 747.188 107.884 747.555 111H724C710.745 111 700 121.745 700 135C700 148.255 710.745 159 724 159H771.162C785.681 173.228 805.566 182 827.5 182Z" fill="#A359C6"/>
<path fill-rule="evenodd" clip-rule="evenodd" d="M656.5 248C679.487 248 700.224 238.365 714.892 222.914C722.792 228.63 732.503 232 743 232C769.51 232 791 210.51 791 184C791 157.49 769.51 136 743 136C738.931 136 734.981 136.506 731.208 137.459C719.302 107.88 690.34 87 656.5 87C612.041 87 576 123.041 576 167.5C576 170.714 576.188 173.884 576.555 177H553C539.745 177 529 187.745 529 201C529 214.255 539.745 225 553 225H600.162C614.681 239.228 634.566 248 656.5 248Z" fill="#A359C6"/>
<path fill-rule="evenodd" clip-rule="evenodd" d="M671.5 182C694.487 182 715.224 172.365 729.892 156.914C737.792 162.63 747.503 166 758 166C784.51 166 806 144.51 806 118C806 91.4903 784.51 70 758 70C753.931 70 749.981 70.5063 746.208 71.4592C734.302 41.88 705.34 21 671.5 21C627.041 21 591 57.0411 591 101.5C591 104.714 591.188 107.884 591.555 111H568C554.745 111 544 121.745 544 135C544 148.255 554.745 159 568 159H615.162C629.681 173.228 649.566 182 671.5 182Z" fill="#A359C6"/>
<path d="M358.469 162.578C358.885 161.849 359.406 161.406 360.031 161.25C360.656 161.042 361.255 160.938 361.828 160.938C362.714 160.938 363.755 162.188 364.953 164.688C366.151 167.188 367.401 170.443 368.703 174.453C370.057 178.464 371.411 182.995 372.766 188.047C374.12 193.099 375.344 198.203 376.438 203.359C376.438 203.464 376.438 203.568 376.438 203.672C376.49 203.724 376.516 203.802 376.516 203.906C376.516 204.74 376.177 205.443 375.5 206.016C374.823 206.589 374.042 206.875 373.156 206.875C372.583 206.875 372.089 206.693 371.672 206.328C371.255 206.016 370.969 205.443 370.812 204.609C370.552 203.099 370.109 201.25 369.484 199.062C368.859 196.875 368.26 194.531 367.688 192.031C366.542 192.135 365.188 192.24 363.625 192.344C362.115 192.396 360.552 192.422 358.938 192.422C358.104 192.422 357.297 192.422 356.516 192.422C355.786 192.37 355.057 192.318 354.328 192.266C353.495 194.922 352.74 197.318 352.062 199.453C351.385 201.589 350.865 203.307 350.5 204.609C350.24 205.495 349.849 206.094 349.328 206.406C348.859 206.719 348.339 206.875 347.766 206.875C347.036 206.875 346.333 206.589 345.656 206.016C345.031 205.495 344.719 204.87 344.719 204.141C344.719 204.036 344.771 203.776 344.875 203.359L351.359 182.5C351.984 180.417 352.635 178.359 353.312 176.328C353.99 174.245 354.641 172.318 355.266 170.547C355.891 168.776 356.464 167.214 356.984 165.859C357.557 164.453 358.052 163.359 358.469 162.578ZM361.438 170.781C360.604 173.021 359.719 175.547 358.781 178.359C357.844 181.172 356.932 183.984 356.047 186.797C356.62 186.797 357.219 186.823 357.844 186.875C358.469 186.875 359.094 186.875 359.719 186.875C362.062 186.875 364.224 186.797 366.203 186.641C365.422 183.828 364.615 181.042 363.781 178.281C362.948 175.521 362.167 173.021 361.438 170.781ZM388.625 165.078C388.729 167.318 388.807 169.766 388.859 172.422C388.911 175.078 388.938 177.812 388.938 180.625C390.396 179.948 391.828 179.167 393.234 178.281C394.693 177.396 396.021 176.484 397.219 175.547C398.417 174.609 399.432 173.724 400.266 172.891C401.151 172.005 401.75 171.224 402.062 170.547C402.323 169.818 402.453 169.036 402.453 168.203C402.453 167.578 402.271 166.927 401.906 166.25C401.542 165.573 401.359 164.922 401.359 164.297C401.359 163.672 401.698 163.151 402.375 162.734C403.052 162.266 403.807 162.031 404.641 162.031C405.578 162.031 406.49 162.526 407.375 163.516C408.26 164.505 408.703 166.276 408.703 168.828C408.703 171.536 407.323 174.271 404.562 177.031C401.802 179.74 397.948 182.266 393 184.609C394.927 185.391 396.854 186.406 398.781 187.656C400.76 188.906 402.583 190.312 404.25 191.875C405.969 193.385 407.427 195 408.625 196.719C409.875 198.438 410.76 200.13 411.281 201.797C411.333 201.953 411.359 202.188 411.359 202.5C411.359 203.333 411.021 203.958 410.344 204.375C409.667 204.792 408.938 205 408.156 205C407.688 205 407.245 204.922 406.828 204.766C406.464 204.609 406.229 204.349 406.125 203.984C405.344 202.214 404.302 200.573 403 199.062C401.698 197.552 400.266 196.172 398.703 194.922C397.141 193.672 395.5 192.578 393.781 191.641C392.062 190.651 390.396 189.844 388.781 189.219C388.677 191.302 388.625 193.307 388.625 195.234C388.625 197.109 388.547 198.776 388.391 200.234C388.234 201.641 387.922 202.76 387.453 203.594C387.036 204.427 386.359 204.844 385.422 204.844C384.536 204.844 383.781 204.609 383.156 204.141C382.531 203.672 382.219 202.995 382.219 202.109C382.271 200.651 382.349 198.958 382.453 197.031C382.557 195.052 382.635 192.943 382.688 190.703C382.74 188.464 382.792 186.172 382.844 183.828C382.896 181.484 382.922 179.219 382.922 177.031C382.922 174.74 382.87 172.63 382.766 170.703C382.714 168.724 382.688 167.031 382.688 165.625C382.688 164.896 382.974 164.375 383.547 164.062C384.12 163.75 384.771 163.594 385.5 163.594C386.229 163.594 386.906 163.724 387.531 163.984C388.208 164.245 388.573 164.609 388.625 165.078ZM430.188 200.703H431.047C433.078 200.703 434.797 200.286 436.203 199.453C437.661 198.568 438.833 197.37 439.719 195.859C440.604 194.297 441.255 192.448 441.672 190.312C442.089 188.177 442.297 185.833 442.297 183.281C442.297 180.729 442.115 178.047 441.75 175.234C441.385 172.37 440.917 169.453 440.344 166.484C440.292 166.38 440.266 166.198 440.266 165.938C440.266 165.156 440.63 164.557 441.359 164.141C442.089 163.724 442.87 163.516 443.703 163.516C444.328 163.516 444.901 163.646 445.422 163.906C445.995 164.167 446.333 164.557 446.438 165.078C447.844 171.745 448.547 177.839 448.547 183.359C448.547 186.797 448.208 189.948 447.531 192.812C446.906 195.625 445.865 198.047 444.406 200.078C443 202.057 441.151 203.594 438.859 204.688C436.568 205.781 433.781 206.328 430.5 206.328C425.917 206.328 422.297 204.479 419.641 200.781C416.984 197.031 415.656 191.667 415.656 184.688C415.656 181.562 415.969 178.281 416.594 174.844C417.271 171.406 418.312 167.891 419.719 164.297C419.927 163.724 420.318 163.333 420.891 163.125C421.516 162.865 422.167 162.734 422.844 162.734C423.885 162.734 424.771 162.995 425.5 163.516C426.281 164.036 426.672 164.688 426.672 165.469C426.672 166.302 426.359 166.979 425.734 167.5C425.161 168.021 424.719 168.568 424.406 169.141C423.521 172.057 422.87 174.818 422.453 177.422C422.089 179.974 421.906 182.37 421.906 184.609C421.906 189.505 422.661 193.385 424.172 196.25C425.734 199.062 427.74 200.547 430.188 200.703ZM486.125 162.578C486.542 161.849 487.062 161.406 487.688 161.25C488.312 161.042 488.911 160.938 489.484 160.938C490.37 160.938 491.411 162.188 492.609 164.688C493.807 167.188 495.057 170.443 496.359 174.453C497.714 178.464 499.068 182.995 500.422 188.047C501.776 193.099 503 198.203 504.094 203.359C504.094 203.464 504.094 203.568 504.094 203.672C504.146 203.724 504.172 203.802 504.172 203.906C504.172 204.74 503.833 205.443 503.156 206.016C502.479 206.589 501.698 206.875 500.812 206.875C500.24 206.875 499.745 206.693 499.328 206.328C498.911 206.016 498.625 205.443 498.469 204.609C498.208 203.099 497.766 201.25 497.141 199.062C496.516 196.875 495.917 194.531 495.344 192.031C494.198 192.135 492.844 192.24 491.281 192.344C489.771 192.396 488.208 192.422 486.594 192.422C485.76 192.422 484.953 192.422 484.172 192.422C483.443 192.37 482.714 192.318 481.984 192.266C481.151 194.922 480.396 197.318 479.719 199.453C479.042 201.589 478.521 203.307 478.156 204.609C477.896 205.495 477.505 206.094 476.984 206.406C476.516 206.719 475.995 206.875 475.422 206.875C474.693 206.875 473.99 206.589 473.312 206.016C472.688 205.495 472.375 204.87 472.375 204.141C472.375 204.036 472.427 203.776 472.531 203.359L479.016 182.5C479.641 180.417 480.292 178.359 480.969 176.328C481.646 174.245 482.297 172.318 482.922 170.547C483.547 168.776 484.12 167.214 484.641 165.859C485.214 164.453 485.708 163.359 486.125 162.578ZM489.094 170.781C488.26 173.021 487.375 175.547 486.438 178.359C485.5 181.172 484.589 183.984 483.703 186.797C484.276 186.797 484.875 186.823 485.5 186.875C486.125 186.875 486.75 186.875 487.375 186.875C489.719 186.875 491.88 186.797 493.859 186.641C493.078 183.828 492.271 181.042 491.438 178.281C490.604 175.521 489.823 173.021 489.094 170.781ZM516.281 165.078C516.385 167.318 516.464 169.766 516.516 172.422C516.568 175.078 516.594 177.812 516.594 180.625C518.052 179.948 519.484 179.167 520.891 178.281C522.349 177.396 523.677 176.484 524.875 175.547C526.073 174.609 527.089 173.724 527.922 172.891C528.807 172.005 529.406 171.224 529.719 170.547C529.979 169.818 530.109 169.036 530.109 168.203C530.109 167.578 529.927 166.927 529.562 166.25C529.198 165.573 529.016 164.922 529.016 164.297C529.016 163.672 529.354 163.151 530.031 162.734C530.708 162.266 531.464 162.031 532.297 162.031C533.234 162.031 534.146 162.526 535.031 163.516C535.917 164.505 536.359 166.276 536.359 168.828C536.359 171.536 534.979 174.271 532.219 177.031C529.458 179.74 525.604 182.266 520.656 184.609C522.583 185.391 524.51 186.406 526.438 187.656C528.417 188.906 530.24 190.312 531.906 191.875C533.625 193.385 535.083 195 536.281 196.719C537.531 198.438 538.417 200.13 538.938 201.797C538.99 201.953 539.016 202.188 539.016 202.5C539.016 203.333 538.677 203.958 538 204.375C537.323 204.792 536.594 205 535.812 205C535.344 205 534.901 204.922 534.484 204.766C534.12 204.609 533.885 204.349 533.781 203.984C533 202.214 531.958 200.573 530.656 199.062C529.354 197.552 527.922 196.172 526.359 194.922C524.797 193.672 523.156 192.578 521.438 191.641C519.719 190.651 518.052 189.844 516.438 189.219C516.333 191.302 516.281 193.307 516.281 195.234C516.281 197.109 516.203 198.776 516.047 200.234C515.891 201.641 515.578 202.76 515.109 203.594C514.693 204.427 514.016 204.844 513.078 204.844C512.193 204.844 511.438 204.609 510.812 204.141C510.188 203.672 509.875 202.995 509.875 202.109C509.927 200.651 510.005 198.958 510.109 197.031C510.214 195.052 510.292 192.943 510.344 190.703C510.396 188.464 510.448 186.172 510.5 183.828C510.552 181.484 510.578 179.219 510.578 177.031C510.578 174.74 510.526 172.63 510.422 170.703C510.37 168.724 510.344 167.031 510.344 165.625C510.344 164.896 510.63 164.375 511.203 164.062C511.776 163.75 512.427 163.594 513.156 163.594C513.885 163.594 514.562 163.724 515.188 163.984C515.865 164.245 516.229 164.609 516.281 165.078ZM557.844 200.703H558.703C560.734 200.703 562.453 200.286 563.859 199.453C565.318 198.568 566.49 197.37 567.375 195.859C568.26 194.297 568.911 192.448 569.328 190.312C569.745 188.177 569.953 185.833 569.953 183.281C569.953 180.729 569.771 178.047 569.406 175.234C569.042 172.37 568.573 169.453 568 166.484C567.948 166.38 567.922 166.198 567.922 165.938C567.922 165.156 568.286 164.557 569.016 164.141C569.745 163.724 570.526 163.516 571.359 163.516C571.984 163.516 572.557 163.646 573.078 163.906C573.651 164.167 573.99 164.557 574.094 165.078C575.5 171.745 576.203 177.839 576.203 183.359C576.203 186.797 575.865 189.948 575.188 192.812C574.562 195.625 573.521 198.047 572.062 200.078C570.656 202.057 568.807 203.594 566.516 204.688C564.224 205.781 561.438 206.328 558.156 206.328C553.573 206.328 549.953 204.479 547.297 200.781C544.641 197.031 543.312 191.667 543.312 184.688C543.312 181.562 543.625 178.281 544.25 174.844C544.927 171.406 545.969 167.891 547.375 164.297C547.583 163.724 547.974 163.333 548.547 163.125C549.172 162.865 549.823 162.734 550.5 162.734C551.542 162.734 552.427 162.995 553.156 163.516C553.938 164.036 554.328 164.688 554.328 165.469C554.328 166.302 554.016 166.979 553.391 167.5C552.818 168.021 552.375 168.568 552.062 169.141C551.177 172.057 550.526 174.818 550.109 177.422C549.745 179.974 549.562 182.37 549.562 184.609C549.562 189.505 550.318 193.385 551.828 196.25C553.391 199.062 555.396 200.547 557.844 200.703ZM613.781 162.578C614.198 161.849 614.719 161.406 615.344 161.25C615.969 161.042 616.568 160.938 617.141 160.938C618.026 160.938 619.068 162.188 620.266 164.688C621.464 167.188 622.714 170.443 624.016 174.453C625.37 178.464 626.724 182.995 628.078 188.047C629.432 193.099 630.656 198.203 631.75 203.359C631.75 203.464 631.75 203.568 631.75 203.672C631.802 203.724 631.828 203.802 631.828 203.906C631.828 204.74 631.49 205.443 630.812 206.016C630.135 206.589 629.354 206.875 628.469 206.875C627.896 206.875 627.401 206.693 626.984 206.328C626.568 206.016 626.281 205.443 626.125 204.609C625.865 203.099 625.422 201.25 624.797 199.062C624.172 196.875 623.573 194.531 623 192.031C621.854 192.135 620.5 192.24 618.938 192.344C617.427 192.396 615.865 192.422 614.25 192.422C613.417 192.422 612.609 192.422 611.828 192.422C611.099 192.37 610.37 192.318 609.641 192.266C608.807 194.922 608.052 197.318 607.375 199.453C606.698 201.589 606.177 203.307 605.812 204.609C605.552 205.495 605.161 206.094 604.641 206.406C604.172 206.719 603.651 206.875 603.078 206.875C602.349 206.875 601.646 206.589 600.969 206.016C600.344 205.495 600.031 204.87 600.031 204.141C600.031 204.036 600.083 203.776 600.188 203.359L606.672 182.5C607.297 180.417 607.948 178.359 608.625 176.328C609.302 174.245 609.953 172.318 610.578 170.547C611.203 168.776 611.776 167.214 612.297 165.859C612.87 164.453 613.365 163.359 613.781 162.578ZM616.75 170.781C615.917 173.021 615.031 175.547 614.094 178.359C613.156 181.172 612.245 183.984 611.359 186.797C611.932 186.797 612.531 186.823 613.156 186.875C613.781 186.875 614.406 186.875 615.031 186.875C617.375 186.875 619.536 186.797 621.516 186.641C620.734 183.828 619.927 181.042 619.094 178.281C618.26 175.521 617.479 173.021 616.75 170.781ZM643.938 165.078C644.042 167.318 644.12 169.766 644.172 172.422C644.224 175.078 644.25 177.812 644.25 180.625C645.708 179.948 647.141 179.167 648.547 178.281C650.005 177.396 651.333 176.484 652.531 175.547C653.729 174.609 654.745 173.724 655.578 172.891C656.464 172.005 657.062 171.224 657.375 170.547C657.635 169.818 657.766 169.036 657.766 168.203C657.766 167.578 657.583 166.927 657.219 166.25C656.854 165.573 656.672 164.922 656.672 164.297C656.672 163.672 657.01 163.151 657.688 162.734C658.365 162.266 659.12 162.031 659.953 162.031C660.891 162.031 661.802 162.526 662.688 163.516C663.573 164.505 664.016 166.276 664.016 168.828C664.016 171.536 662.635 174.271 659.875 177.031C657.115 179.74 653.26 182.266 648.312 184.609C650.24 185.391 652.167 186.406 654.094 187.656C656.073 188.906 657.896 190.312 659.562 191.875C661.281 193.385 662.74 195 663.938 196.719C665.188 198.438 666.073 200.13 666.594 201.797C666.646 201.953 666.672 202.188 666.672 202.5C666.672 203.333 666.333 203.958 665.656 204.375C664.979 204.792 664.25 205 663.469 205C663 205 662.557 204.922 662.141 204.766C661.776 204.609 661.542 204.349 661.438 203.984C660.656 202.214 659.615 200.573 658.312 199.062C657.01 197.552 655.578 196.172 654.016 194.922C652.453 193.672 650.812 192.578 649.094 191.641C647.375 190.651 645.708 189.844 644.094 189.219C643.99 191.302 643.938 193.307 643.938 195.234C643.938 197.109 643.859 198.776 643.703 200.234C643.547 201.641 643.234 202.76 642.766 203.594C642.349 204.427 641.672 204.844 640.734 204.844C639.849 204.844 639.094 204.609 638.469 204.141C637.844 203.672 637.531 202.995 637.531 202.109C637.583 200.651 637.661 198.958 637.766 197.031C637.87 195.052 637.948 192.943 638 190.703C638.052 188.464 638.104 186.172 638.156 183.828C638.208 181.484 638.234 179.219 638.234 177.031C638.234 174.74 638.182 172.63 638.078 170.703C638.026 168.724 638 167.031 638 165.625C638 164.896 638.286 164.375 638.859 164.062C639.432 163.75 640.083 163.594 640.812 163.594C641.542 163.594 642.219 163.724 642.844 163.984C643.521 164.245 643.885 164.609 643.938 165.078ZM685.5 200.703H686.359C688.391 200.703 690.109 200.286 691.516 199.453C692.974 198.568 694.146 197.37 695.031 195.859C695.917 194.297 696.568 192.448 696.984 190.312C697.401 188.177 697.609 185.833 697.609 183.281C697.609 180.729 697.427 178.047 697.062 175.234C696.698 172.37 696.229 169.453 695.656 166.484C695.604 166.38 695.578 166.198 695.578 165.938C695.578 165.156 695.943 164.557 696.672 164.141C697.401 163.724 698.182 163.516 699.016 163.516C699.641 163.516 700.214 163.646 700.734 163.906C701.307 164.167 701.646 164.557 701.75 165.078C703.156 171.745 703.859 177.839 703.859 183.359C703.859 186.797 703.521 189.948 702.844 192.812C702.219 195.625 701.177 198.047 699.719 200.078C698.312 202.057 696.464 203.594 694.172 204.688C691.88 205.781 689.094 206.328 685.812 206.328C681.229 206.328 677.609 204.479 674.953 200.781C672.297 197.031 670.969 191.667 670.969 184.688C670.969 181.562 671.281 178.281 671.906 174.844C672.583 171.406 673.625 167.891 675.031 164.297C675.24 163.724 675.63 163.333 676.203 163.125C676.828 162.865 677.479 162.734 678.156 162.734C679.198 162.734 680.083 162.995 680.812 163.516C681.594 164.036 681.984 164.688 681.984 165.469C681.984 166.302 681.672 166.979 681.047 167.5C680.474 168.021 680.031 168.568 679.719 169.141C678.833 172.057 678.182 174.818 677.766 177.422C677.401 179.974 677.219 182.37 677.219 184.609C677.219 189.505 677.974 193.385 679.484 196.25C681.047 199.062 683.052 200.547 685.5 200.703ZM737.375 196.484C738.052 196.484 738.99 196.536 740.188 196.641C741.385 196.745 742.557 197.083 743.703 197.656C744.849 198.177 745.839 199.01 746.672 200.156C747.505 201.302 747.922 202.891 747.922 204.922C747.922 206.797 747.271 208.464 745.969 209.922C744.667 211.432 742.844 212.188 740.5 212.188C739.406 212.188 738.391 211.953 737.453 211.484C736.516 211.016 735.708 210.417 735.031 209.688C734.354 209.01 733.807 208.229 733.391 207.344C733.026 206.51 732.844 205.703 732.844 204.922C732.896 204.193 733.026 203.49 733.234 202.812C733.443 202.135 733.833 201.589 734.406 201.172L735.344 200.547C735.083 200.182 734.953 199.792 734.953 199.375C734.953 198.594 735.161 197.943 735.578 197.422C736.047 196.849 736.646 196.536 737.375 196.484ZM738.938 201.484C739.042 201.641 739.094 201.875 739.094 202.188C739.094 202.604 738.911 203.099 738.547 203.672C738.182 204.245 738 204.688 738 205C738 205.573 738.234 206.042 738.703 206.406C739.224 206.823 739.745 207.031 740.266 207.031C741.307 207.031 742.01 206.771 742.375 206.25C742.792 205.729 743 205.286 743 204.922C743 204.141 742.87 203.516 742.609 203.047C742.401 202.578 742.089 202.24 741.672 202.031C741.307 201.771 740.865 201.615 740.344 201.562C739.875 201.51 739.406 201.484 738.938 201.484ZM737.219 158.984V158.75C737.219 158.177 737.531 157.734 738.156 157.422C738.781 157.057 739.51 156.875 740.344 156.875C741.073 156.875 741.802 157.005 742.531 157.266C743.26 157.526 743.833 157.943 744.25 158.516C744.25 159.245 744.198 159.87 744.094 160.391C744.042 160.911 743.99 161.354 743.938 161.719L743.312 163.984C743.469 165.599 743.599 166.927 743.703 167.969C743.859 169.01 743.99 170 744.094 170.938C744.198 171.823 744.276 172.76 744.328 173.75C744.38 174.74 744.406 175.99 744.406 177.5C744.406 179.219 744.354 180.938 744.25 182.656C744.146 184.375 743.938 185.938 743.625 187.344C743.365 188.698 742.948 189.818 742.375 190.703C741.854 191.536 741.151 191.953 740.266 191.953C739.536 191.953 738.885 191.745 738.312 191.328C737.74 190.859 737.453 190.339 737.453 189.766C737.453 189.557 737.479 189.401 737.531 189.297C737.948 187.891 738.208 186.589 738.312 185.391C738.417 184.193 738.469 183.073 738.469 182.031C738.469 179.167 738.417 176.875 738.312 175.156C738.26 173.385 738.182 171.771 738.078 170.312C737.974 168.802 737.844 167.24 737.688 165.625C737.531 163.958 737.375 161.745 737.219 158.984ZM764.094 196.484C764.771 196.484 765.708 196.536 766.906 196.641C768.104 196.745 769.276 197.083 770.422 197.656C771.568 198.177 772.557 199.01 773.391 200.156C774.224 201.302 774.641 202.891 774.641 204.922C774.641 206.797 773.99 208.464 772.688 209.922C771.385 211.432 769.562 212.188 767.219 212.188C766.125 212.188 765.109 211.953 764.172 211.484C763.234 211.016 762.427 210.417 761.75 209.688C761.073 209.01 760.526 208.229 760.109 207.344C759.745 206.51 759.562 205.703 759.562 204.922C759.615 204.193 759.745 203.49 759.953 202.812C760.161 202.135 760.552 201.589 761.125 201.172L762.062 200.547C761.802 200.182 761.672 199.792 761.672 199.375C761.672 198.594 761.88 197.943 762.297 197.422C762.766 196.849 763.365 196.536 764.094 196.484ZM765.656 201.484C765.76 201.641 765.812 201.875 765.812 202.188C765.812 202.604 765.63 203.099 765.266 203.672C764.901 204.245 764.719 204.688 764.719 205C764.719 205.573 764.953 206.042 765.422 206.406C765.943 206.823 766.464 207.031 766.984 207.031C768.026 207.031 768.729 206.771 769.094 206.25C769.51 205.729 769.719 205.286 769.719 204.922C769.719 204.141 769.589 203.516 769.328 203.047C769.12 202.578 768.807 202.24 768.391 202.031C768.026 201.771 767.583 201.615 767.062 201.562C766.594 201.51 766.125 201.484 765.656 201.484ZM763.938 158.984V158.75C763.938 158.177 764.25 157.734 764.875 157.422C765.5 157.057 766.229 156.875 767.062 156.875C767.792 156.875 768.521 157.005 769.25 157.266C769.979 157.526 770.552 157.943 770.969 158.516C770.969 159.245 770.917 159.87 770.812 160.391C770.76 160.911 770.708 161.354 770.656 161.719L770.031 163.984C770.188 165.599 770.318 166.927 770.422 167.969C770.578 169.01 770.708 170 770.812 170.938C770.917 171.823 770.995 172.76 771.047 173.75C771.099 174.74 771.125 175.99 771.125 177.5C771.125 179.219 771.073 180.938 770.969 182.656C770.865 184.375 770.656 185.938 770.344 187.344C770.083 188.698 769.667 189.818 769.094 190.703C768.573 191.536 767.87 191.953 766.984 191.953C766.255 191.953 765.604 191.745 765.031 191.328C764.458 190.859 764.172 190.339 764.172 189.766C764.172 189.557 764.198 189.401 764.25 189.297C764.667 187.891 764.927 186.589 765.031 185.391C765.135 184.193 765.188 183.073 765.188 182.031C765.188 179.167 765.135 176.875 765.031 175.156C764.979 173.385 764.901 171.771 764.797 170.312C764.693 168.802 764.562 167.24 764.406 165.625C764.25 163.958 764.094 161.745 763.938 158.984ZM790.812 196.484C791.49 196.484 792.427 196.536 793.625 196.641C794.823 196.745 795.995 197.083 797.141 197.656C798.286 198.177 799.276 199.01 800.109 200.156C800.943 201.302 801.359 202.891 801.359 204.922C801.359 206.797 800.708 208.464 799.406 209.922C798.104 211.432 796.281 212.188 793.938 212.188C792.844 212.188 791.828 211.953 790.891 211.484C789.953 211.016 789.146 210.417 788.469 209.688C787.792 209.01 787.245 208.229 786.828 207.344C786.464 206.51 786.281 205.703 786.281 204.922C786.333 204.193 786.464 203.49 786.672 202.812C786.88 202.135 787.271 201.589 787.844 201.172L788.781 200.547C788.521 200.182 788.391 199.792 788.391 199.375C788.391 198.594 788.599 197.943 789.016 197.422C789.484 196.849 790.083 196.536 790.812 196.484ZM792.375 201.484C792.479 201.641 792.531 201.875 792.531 202.188C792.531 202.604 792.349 203.099 791.984 203.672C791.62 204.245 791.438 204.688 791.438 205C791.438 205.573 791.672 206.042 792.141 206.406C792.661 206.823 793.182 207.031 793.703 207.031C794.745 207.031 795.448 206.771 795.812 206.25C796.229 205.729 796.438 205.286 796.438 204.922C796.438 204.141 796.307 203.516 796.047 203.047C795.839 202.578 795.526 202.24 795.109 202.031C794.745 201.771 794.302 201.615 793.781 201.562C793.312 201.51 792.844 201.484 792.375 201.484ZM790.656 158.984V158.75C790.656 158.177 790.969 157.734 791.594 157.422C792.219 157.057 792.948 156.875 793.781 156.875C794.51 156.875 795.24 157.005 795.969 157.266C796.698 157.526 797.271 157.943 797.688 158.516C797.688 159.245 797.635 159.87 797.531 160.391C797.479 160.911 797.427 161.354 797.375 161.719L796.75 163.984C796.906 165.599 797.036 166.927 797.141 167.969C797.297 169.01 797.427 170 797.531 170.938C797.635 171.823 797.714 172.76 797.766 173.75C797.818 174.74 797.844 175.99 797.844 177.5C797.844 179.219 797.792 180.938 797.688 182.656C797.583 184.375 797.375 185.938 797.062 187.344C796.802 188.698 796.385 189.818 795.812 190.703C795.292 191.536 794.589 191.953 793.703 191.953C792.974 191.953 792.323 191.745 791.75 191.328C791.177 190.859 790.891 190.339 790.891 189.766C790.891 189.557 790.917 189.401 790.969 189.297C791.385 187.891 791.646 186.589 791.75 185.391C791.854 184.193 791.906 183.073 791.906 182.031C791.906 179.167 791.854 176.875 791.75 175.156C791.698 173.385 791.62 171.771 791.516 170.312C791.411 168.802 791.281 167.24 791.125 165.625C790.969 163.958 790.812 161.745 790.656 158.984Z" fill="white"/>
</svg>
