<svg width="1656" height="200" viewBox="0 0 1656 200" fill="none" xmlns="http://www.w3.org/2000/svg">
<g clip-path="url(#clip0_58_1995)">
<circle cx="318.5" cy="-8.5" r="34.5" fill="white"/>
<mask id="mask0_58_1995" style="mask-type:alpha" maskUnits="userSpaceOnUse" x="0" y="-9" width="1656" height="172">
<rect y="-9" width="1656" height="172" fill="url(#paint0_linear_58_1995)"/>
</mask>
<g mask="url(#mask0_58_1995)">
<circle cx="1371" cy="156" r="54" fill="white"/>
<circle cx="1096" cy="-24" r="54" fill="white"/>
<circle cx="689" cy="162" r="54" fill="white"/>
<circle cx="608" cy="141" r="54" fill="white"/>
<circle cx="378" cy="-9" r="46" fill="white"/>
<circle cx="432" cy="-17" r="33" fill="white"/>
<circle cx="1295" cy="170" r="54" fill="white"/>
<rect x="1001" width="75" height="17" rx="8.5" fill="white"/>
<rect x="438" y="-13" width="41" height="17" rx="8.5" fill="white"/>
<circle cx="1431" cy="190" r="54" fill="white"/>
<circle cx="170" cy="153" r="54" fill="white"/>
<circle cx="94" cy="167" r="54" fill="white"/>
<circle cx="230" cy="187" r="54" fill="white"/>
<path d="M557.467 117.385C557.467 117.385 556.171 118.208 557.837 119.261" stroke="#263043" stroke-width="1.5" stroke-miterlimit="10" stroke-linecap="round" stroke-linejoin="round"/>
<path d="M550.801 106.052C550.801 106.052 557.972 99.1366 553.04 91.4879C552.892 91.257 553.087 90.9587 553.359 91.0047C555.55 91.3738 562.075 93.322 561.972 103.428L552.653 107.638L550.801 106.052Z" fill="#3D96A6"/>
<path d="M566.4 113.77C566.4 113.77 572.927 114.548 577 117.934C577 117.934 575.241 119.078 574.269 121C574.269 121 569.965 116.653 564.364 116.515L566.4 113.77Z" fill="#263043"/>
<path d="M548.086 105.563C550.863 104.892 552.53 107.211 552.53 107.211L553.585 107.684C553.18 108.584 551.97 110.492 548.918 110.934C548.908 110.913 548.898 110.893 548.889 110.872C548.889 110.872 546.852 110.506 545.741 108.797C545.741 108.797 545.309 106.234 548.086 105.563Z" fill="#A86E85"/>
<path d="M553.585 107.684L565.86 113.19C565.86 113.19 567.758 114.585 568.745 115.795C568.914 116.002 568.809 116.312 568.548 116.371C567.761 116.551 566.16 116.851 564.256 116.851C564.256 116.851 553.745 121.651 548.917 110.934C551.97 110.492 553.179 108.584 553.585 107.684Z" fill="#6CC1CB"/>
<path d="M545.741 108.797L545 110.109L546.574 109.712L545.741 108.797Z" fill="#263043"/>
<path d="M547.245 108.252C547.245 108.031 547.427 107.852 547.65 107.852C547.874 107.852 548.055 108.031 548.055 108.252C548.055 108.473 547.874 108.652 547.65 108.652C547.427 108.652 547.245 108.473 547.245 108.252Z" fill="white"/>
<path d="M547.346 108.252C547.346 108.131 547.445 108.033 547.567 108.033C547.689 108.033 547.788 108.131 547.788 108.252C547.788 108.372 547.689 108.47 547.567 108.47C547.445 108.47 547.346 108.372 547.346 108.252Z" fill="#263043"/>
<path d="M560.938 106.951C563.366 105.364 563.834 102.614 563.925 101.612C566.699 99.4804 568.766 96.7871 568.316 93.6122C568.267 93.2695 568.667 93.0452 568.947 93.2532C570.174 94.1661 572.321 96.8303 571.785 104.16C571.785 104.16 570.982 112.031 562.774 114.044C562.774 114.044 560.308 113.478 557.612 111.904C557.787 111.039 558.486 108.555 560.938 106.951Z" fill="#3D96A6"/>
<path d="M552.529 107.211C552.529 107.211 559.237 105.214 563.925 101.612C563.834 102.614 563.366 105.363 560.938 106.951C558.486 108.555 557.787 111.039 557.612 111.904C555.794 110.843 553.871 109.324 552.529 107.211Z" fill="#263043"/>
<path d="M559.596 116.973C559.596 116.973 558.3 117.797 559.966 118.849" stroke="#263043" stroke-width="1.5" stroke-miterlimit="10" stroke-linecap="round" stroke-linejoin="round"/>
<path d="M349.067 20.0142C349.067 20.0142 350.997 23.861 349.07 29.1844C348.996 29.3891 348.709 29.4034 348.619 29.2051C348.197 28.2726 347.18 26.4472 345.498 25.8992L345.807 21.5514L349.067 20.0142Z" fill="#3D96A6"/>
<path d="M326.991 18.3014C326.991 18.3014 329.811 19.4434 333.689 19.8825C333.689 19.8825 336.597 22.9567 344.352 22.2541C352.107 21.5515 352.041 15.2712 352.041 15.2712C352.041 15.2712 349.684 15.3591 344.661 19.663L333.689 18.9602L326.991 18.3014Z" fill="#E5213B"/>
<path d="M352.042 15.2712C352.042 15.2712 350.257 10.7916 344.375 14.4148C344.375 14.4148 338.889 15.5347 333.601 17.9721C333.601 17.9721 331.486 17.511 329.173 16.1934C329.173 16.1934 326.925 17.0499 326 17.9721C326 17.9721 329.635 19.2897 333.799 19.2897C333.799 19.2897 338.889 21.2 343.515 20.0143C348.142 18.8286 348.472 16.4569 352.042 15.2712Z" fill="#263043"/>
<path d="M352.041 15.2712L353 15.9958L351.909 16.5228C351.909 16.5228 352.025 15.9136 352.041 15.2712Z" fill="#263043"/>
<path d="M350.026 15.5842C350.227 15.5842 350.389 15.4219 350.389 15.2218C350.389 15.0216 350.227 14.8594 350.026 14.8594C349.825 14.8594 349.662 15.0216 349.662 15.2218C349.662 15.4219 349.825 15.5842 350.026 15.5842Z" fill="white"/>
<path d="M350.1 15.4195C350.21 15.4195 350.298 15.331 350.298 15.2218C350.298 15.1127 350.21 15.0242 350.1 15.0242C349.991 15.0242 349.902 15.1127 349.902 15.2218C349.902 15.331 349.991 15.4195 350.1 15.4195Z" fill="#263043"/>
<path d="M337.302 20.1898C336.754 30.6138 344.369 31.8727 346.975 31.9994C347.32 32.0161 347.535 31.6357 347.344 31.3486C344.105 26.4666 347.084 18.521 347.084 18.521C347.084 18.521 343.779 21.1341 337.302 20.1898Z" fill="#6CC1CB"/>
<path d="M1477.02 23.7942C1480.8 22.4555 1482.79 20.6844 1483.46 20.0036C1483.64 19.8245 1483.88 19.7306 1484.13 19.7424C1490.6 20.0454 1494.74 18.0343 1496.32 17.0748C1496.65 16.8718 1497.09 17.1053 1497.1 17.4942C1497.45 28.451 1487.64 31.4101 1487.64 31.4101C1487.64 31.4101 1483.51 25.2101 1477.02 23.7942Z" fill="#3D96A6"/>
<path d="M1488.79 35.3972C1488.79 35.3972 1491.05 37.8625 1495.7 39.9691C1495.7 39.9691 1493.94 39.7001 1493.31 40.9999C1493.31 40.9999 1490.05 37.7728 1486.26 36.3384L1488.79 35.3972Z" fill="#A86E85"/>
<path d="M1472.54 23.8783L1471 22.3767L1473.08 22.6008C1473.08 22.6008 1472.54 23.3178 1472.54 23.8783Z" fill="#263043"/>
<path d="M1474.68 27.0157C1473.61 25.5106 1473.39 24.7854 1473.35 24.4639C1475.91 24.7356 1482.57 26.3978 1487.68 36.0858C1486.97 36.3207 1486.26 36.3386 1486.26 36.3386C1480.26 36.3186 1476.87 33.8825 1474.96 31.186C1475.94 30.413 1476.22 29.1742 1474.68 27.0157Z" fill="#263043"/>
<path d="M1473.35 24.464C1473.39 24.7855 1473.61 25.5107 1474.68 27.0158C1476.22 29.1743 1475.94 30.4131 1474.96 31.1862C1473 28.4386 1472.58 25.4211 1472.49 24.4124C1472.67 24.4126 1472.97 24.4227 1473.35 24.464Z" fill="#3D96A6"/>
<path d="M1475.31 21.6284C1475.53 21.6047 1475.77 21.5892 1476.04 21.5925C1479.84 21.6373 1487.93 29.0328 1488.79 35.3976C1488.52 35.7313 1488.1 35.9467 1487.68 36.0859C1483.87 28.8638 1479.2 26.1038 1476.01 25.0528C1476.07 23.455 1475.55 22.148 1475.31 21.6284Z" fill="#263043"/>
<path d="M1472.47 24.0575C1472.47 24.0575 1472.51 21.9187 1475.31 21.6282C1475.55 22.148 1476.07 23.4548 1476.01 25.0526C1474.27 24.4802 1472.97 24.4131 1472.49 24.4121C1472.47 24.1875 1472.47 24.0575 1472.47 24.0575Z" fill="#F8D351"/>
<path d="M1474.41 23.4152C1474.41 23.6379 1474.23 23.8186 1474.01 23.8186C1473.78 23.8186 1473.6 23.6379 1473.6 23.4152C1473.6 23.1924 1473.78 23.0117 1474.01 23.0117C1474.23 23.0117 1474.41 23.1924 1474.41 23.4152Z" fill="white"/>
<path d="M1473.93 23.6405C1473.81 23.6405 1473.71 23.5396 1473.71 23.415C1473.71 23.2904 1473.81 23.1895 1473.93 23.1895C1474.06 23.1895 1474.16 23.2904 1474.16 23.415C1474.16 23.5396 1474.06 23.6405 1473.93 23.6405Z" fill="#263043"/>
<path d="M1476.1 25.0774C1480.43 24.0487 1482.86 22.3213 1483.68 21.6499C1483.89 21.4731 1484.17 21.3987 1484.45 21.4412C1491.54 22.5365 1496.33 20.8085 1498.19 19.9382C1498.58 19.754 1499.03 20.0621 1499 20.4921C1498.08 32.5996 1486.91 34.7027 1486.91 34.7027C1486.91 34.7027 1483.07 27.4006 1476.1 25.0774Z" fill="#6CC1CB"/>
<path d="M911.093 14.387L900.514 5.19875C900.29 5.00489 899.947 5.20233 900.007 5.4906C900.572 8.22413 902.816 16.7544 909.584 21.8662C909.913 22.1155 910.141 22.4758 910.227 22.8785C910.463 23.9819 911.076 26.3657 912.354 28.697C912.494 28.9532 912.788 29.0861 913.073 29.0154L917.037 28.0308L916.482 20.0434L911.093 14.387Z" fill="#263043"/>
<path d="M920.433 34.3659C920.433 34.3659 922.616 34.0562 923.032 35.5709" stroke="#263043" stroke-width="1.5" stroke-miterlimit="10" stroke-linecap="round" stroke-linejoin="round"/>
<path d="M921.265 34.4004C921.265 34.4004 921.993 34.6413 921.785 35.5365" stroke="#263043" stroke-width="1.5" stroke-miterlimit="10" stroke-linecap="round" stroke-linejoin="round"/>
<path d="M929.782 24.7316L932 25.2364L930.174 23.7446C930.174 23.7446 929.92 24.3874 929.782 24.7316Z" fill="#263043"/>
<path d="M913.805 35.9628C914.066 37.1768 914.779 38.6746 915.65 39.3238C916.759 40.1501 918.061 39.8489 918.7 37.9465C919.11 36.7246 919.587 35.9057 919.965 35.3879C919.404 36.602 919.227 38.2929 920.086 40.4255C921.75 44.5569 921.195 47.8621 921.195 47.8621C919.809 46.2095 918.145 44.5571 918.145 44.5571C917.313 47.5868 914.957 48.0001 914.957 48.0001C915.593 41.0522 914.246 40.4742 913.805 35.9628Z" fill="#3D96A6"/>
<path d="M924.107 21.0076C929.374 19.0796 930.206 23.762 930.206 23.762C929.236 26.654 927.018 26.9294 927.018 26.9294C926.901 27.51 926.669 28.1018 926.369 28.681C926.342 28.0155 926.093 26.0277 924.107 25.2308C921.724 24.2749 912.346 31.038 918.407 38.6265C917.714 39.907 916.61 40.0387 915.65 39.3237C914.779 38.6745 914.066 37.1768 913.805 35.9627C913.766 35.5559 913.732 35.1199 913.709 34.6414C913.287 25.8334 924.107 21.0076 924.107 21.0076Z" fill="#263043"/>
<path d="M927.029 26.9293C925.967 25.5752 926.048 24.3127 927.295 24.3127C928.543 24.3127 930.212 23.7617 930.212 23.7617C930.212 23.7617 929.617 26.4933 927.029 26.9293Z" fill="#E5213B"/>
<path d="M924.107 25.2312C926.093 26.0281 926.343 28.0158 926.369 28.6813C925.247 30.8503 923.121 32.8299 922.027 33.2647C921.356 33.5312 920.492 34.2504 919.966 35.3885C919.587 35.9062 919.11 36.7251 918.7 37.947C918.614 38.203 918.515 38.4277 918.407 38.6271C912.346 31.0381 921.724 24.275 924.107 25.2312Z" fill="#E5213B"/>
<path d="M928.358 23.5094C928.575 23.5094 928.751 23.3348 928.751 23.1193C928.751 22.9039 928.575 22.7292 928.358 22.7292C928.141 22.7292 927.965 22.9039 927.965 23.1193C927.965 23.3348 928.141 23.5094 928.358 23.5094Z" fill="white"/>
<path d="M928.208 23.1194C928.208 22.9989 928.306 22.9014 928.427 22.9014C928.549 22.9014 928.647 22.9989 928.647 23.1194C928.647 23.2398 928.548 23.3373 928.427 23.3373C928.306 23.3376 928.208 23.2398 928.208 23.1194Z" fill="#263043"/>
<path d="M913.805 21.0153C912.557 18.3401 909.142 10.5085 908.38 3.38811C908.347 3.07522 908.712 2.88017 908.954 3.08287C910.556 4.42215 914.901 8.28151 919.61 14.3868C919.011 15.0556 917.726 17.0522 918.905 21.0349C918.905 21.0349 916.325 24.9598 918.217 29.5094C917.216 29.7807 916.142 29.9478 915.029 29.922C914.321 29.9055 913.733 29.3658 913.643 28.6678C913.482 27.4148 913.375 25.2724 913.988 22.9027C914.151 22.2728 914.081 21.6055 913.805 21.0153Z" fill="#6CC1CB"/>
<path d="M918.905 21.0351C917.726 17.0524 919.011 15.0558 919.61 14.387C921.122 16.3475 922.671 18.5377 924.179 20.9529C924.326 21.1881 924.433 21.4464 924.494 21.7165C924.648 22.3978 924.885 23.7846 924.665 25.1622C924.557 25.8384 924.172 26.4381 923.617 26.8447C922.59 27.5971 920.616 28.8599 918.217 29.5098C916.325 24.9599 918.905 21.0351 918.905 21.0351Z" fill="#3D96A6"/>
<path d="M1133.52 121.937C1133.52 121.937 1132.73 122.51 1131.21 122.197" stroke="#263043" stroke-width="1.5" stroke-miterlimit="10" stroke-linecap="round" stroke-linejoin="round"/>
<path d="M1131.34 122.927C1131.34 122.927 1132.58 122.901 1133.15 122.119" stroke="#263043" stroke-width="1.5" stroke-miterlimit="10" stroke-linecap="round" stroke-linejoin="round"/>
<path d="M1149.84 123.029C1149.84 123.029 1148.52 132.282 1140.37 137.961C1140.22 138.068 1140.01 137.942 1140.03 137.756C1140.14 136.913 1140.32 135.098 1140.06 133.321L1147.43 123.618L1149.84 123.029Z" fill="#3D96A6"/>
<path d="M1128.91 116.723C1124.83 117.419 1120.33 117.947 1115.52 117.412C1115.4 117.398 1115.28 117.506 1115.31 117.629C1115.34 117.786 1115.48 118.009 1115.9 118.27C1116.74 118.778 1122.23 120.164 1128.32 120.395C1127.92 120.02 1126.6 118.533 1128.91 116.723Z" fill="#A86E85"/>
<path d="M1151.51 119.494C1150.41 118.398 1150.72 116.72 1150.86 116.155C1150.4 116.138 1149.92 116.133 1149.41 116.144C1149.41 116.144 1144.89 115.266 1141.63 115.035C1138.17 114.789 1133.85 115.88 1128.91 116.723C1126.6 118.533 1127.92 120.019 1128.32 120.395C1128.33 120.395 1128.33 120.395 1128.33 120.395C1135.03 125.222 1144.65 124.48 1150.8 123.306C1150.04 121.027 1151.51 119.494 1151.51 119.494Z" fill="#F8D351"/>
<path d="M1158.39 119.887C1158.39 119.887 1157.93 116.423 1150.86 116.155C1150.72 116.72 1150.41 118.398 1151.51 119.494C1151.51 119.494 1150.04 121.027 1150.8 123.306C1154.31 122.637 1156.69 121.827 1156.76 121.827C1158.65 121.827 1158.39 119.887 1158.39 119.887Z" fill="#E5213B"/>
<path d="M1157.03 120.885C1156.8 121.362 1156.76 121.828 1156.76 121.828C1157.29 121.678 1157.71 121.695 1158.04 121.79C1157.79 121.269 1157.31 121.001 1157.03 120.885Z" fill="#EF9600"/>
<path d="M1158.39 119.887C1157.66 119.976 1157.26 120.436 1157.03 120.885C1157.31 121.001 1157.79 121.269 1158.04 121.791C1158.6 121.949 1158.9 122.323 1159.02 122.507C1159.05 122.55 1159.12 122.543 1159.13 122.495C1159.78 120.9 1158.39 119.887 1158.39 119.887Z" fill="#F8D351"/>
<path d="M1155.5 119.95C1155.79 119.95 1156.03 119.715 1156.03 119.425C1156.03 119.134 1155.79 118.899 1155.5 118.899C1155.21 118.899 1154.97 119.134 1154.97 119.425C1154.97 119.715 1155.21 119.95 1155.5 119.95Z" fill="white"/>
<path d="M1155.3 119.425C1155.3 119.587 1155.43 119.718 1155.59 119.718C1155.76 119.718 1155.89 119.587 1155.89 119.425C1155.89 119.262 1155.76 119.131 1155.59 119.131C1155.43 119.131 1155.3 119.263 1155.3 119.425Z" fill="#263043"/>
<path d="M1131.53 121.623C1131.53 121.623 1130.74 122.197 1129.22 121.884" stroke="#263043" stroke-width="1.5" stroke-miterlimit="10" stroke-linecap="round" stroke-linejoin="round"/>
<path d="M1129.35 122.614C1129.35 122.614 1130.58 122.588 1131.16 121.806" stroke="#263043" stroke-width="1.5" stroke-miterlimit="10" stroke-linecap="round" stroke-linejoin="round"/>
<path d="M1135.07 115.59C1131.21 120.164 1134.19 124.415 1134.19 124.415C1133.25 131.346 1129.73 135.816 1128.65 137.051C1128.53 137.188 1128.63 137.4 1128.81 137.393C1130.57 137.33 1136.79 136.747 1142.47 131.808C1149.17 125.986 1147.73 120.996 1147.73 120.996C1147.96 116.653 1146.17 115.59 1146.17 115.59C1146.17 115.59 1141.05 114.319 1135.07 115.59Z" fill="#263043"/>
<path fill-rule="evenodd" clip-rule="evenodd" d="M1494.5 71C1517.49 71 1538.22 61.3652 1552.89 45.9136C1560.79 51.6303 1570.5 55 1581 55C1607.51 55 1629 33.5097 1629 7C1629 -19.5097 1607.51 -41 1581 -41C1576.93 -41 1572.98 -40.4937 1569.21 -39.5408C1557.3 -69.12 1528.34 -90 1494.5 -90C1450.04 -90 1414 -53.9589 1414 -9.5C1414 -6.28586 1414.19 -3.11572 1414.55 0H1391C1377.75 0 1367 10.7452 1367 24C1367 37.2548 1377.75 48 1391 48H1438.16C1452.68 62.2276 1472.57 71 1494.5 71Z" fill="white"/>
</g>
</g>
<defs>
<linearGradient id="paint0_linear_58_1995" x1="828" y1="-9" x2="828" y2="163" gradientUnits="userSpaceOnUse">
<stop stop-color="#4AA7CC"/>
<stop offset="1" stop-color="#4AA7CC" stop-opacity="0"/>
</linearGradient>
<clipPath id="clip0_58_1995">
<rect width="1656" height="200" fill="white"/>
</clipPath>
</defs>
</svg>
