<svg width="1563" height="824" viewBox="0 0 1563 824" fill="none" xmlns="http://www.w3.org/2000/svg">
<path fill-rule="evenodd" clip-rule="evenodd" d="M1563 173C1563 233.751 1513.75 283 1453 283C1432.76 283 1413.8 277.535 1397.51 268H1278.5C1271.04 268 1265 261.956 1265 254.5C1265 247.044 1271.04 241 1278.5 241H1366.53C1361.73 234.907 1357.56 228.295 1354.12 221.261C1346.86 223.687 1339.08 225 1331 225C1290.68 225 1258 192.317 1258 152C1258 111.683 1290.68 79 1331 79C1347.96 79 1363.57 84.7827 1375.96 94.4839C1395.8 75.0098 1423 63 1453 63C1513.75 63 1563 112.249 1563 173Z" fill="#F7FBFD"/>
<path fill-rule="evenodd" clip-rule="evenodd" d="M312.249 430.543C305.737 448.299 288.384 461 268 461C254.603 461 242.514 455.514 233.953 446.711C228.281 450.067 221.623 452 214.5 452C193.789 452 177 435.658 177 415.5C177 395.342 193.789 379 214.5 379C221.367 379 227.803 380.796 233.338 383.933C241.931 374.755 254.279 369 268 369C284.497 369 299.01 377.319 307.396 389.905C311.14 387.439 315.648 386 320.5 386C333.479 386 344 396.297 344 409C344 421.703 333.479 432 320.5 432C317.597 432 314.817 431.485 312.249 430.543Z" fill="white"/>
<path fill-rule="evenodd" clip-rule="evenodd" d="M42.7065 86.7021C45.8199 61.5764 64.0903 39.5084 90.4689 32.4403C108.293 27.6643 126.336 30.6705 140.871 39.3556C147.218 32.8588 155.386 27.9079 164.862 25.3688C192.416 17.9857 220.592 33.7904 227.794 60.6696C234.996 87.5487 218.498 115.324 190.944 122.707C181.808 125.155 172.604 125.054 164.119 122.845C155.966 138.146 141.594 150.221 123.339 155.113C103.076 160.542 82.5315 155.915 67.1779 144.32C64.4321 146.06 61.3745 147.421 58.0611 148.309C40.7939 152.936 23.117 142.956 18.5786 126.018C14.0402 109.081 24.3589 91.5992 41.6261 86.9725C41.9861 86.876 42.3463 86.7859 42.7065 86.7021Z" fill="white"/>
<path fill-rule="evenodd" clip-rule="evenodd" d="M144 824C161.102 824 176.276 815.744 185.753 803H236C242.075 803 247 798.075 247 792C247 785.925 242.075 781 236 781H195.224C195.734 778.077 196 775.069 196 772C196 743.281 172.719 720 144 720C125.168 720 108.675 730.01 99.5502 745H36.5C30.701 745 26 749.701 26 755.5C26 761.299 30.701 766 36.5 766H67.0424C63.859 770.709 62 776.388 62 782.5C62 798.792 75.2076 812 91.5 812C96.947 812 102.049 810.524 106.428 807.95C115.895 817.84 129.228 824 144 824Z" fill="white"/>
<path fill-rule="evenodd" clip-rule="evenodd" d="M1321.5 776C1344.49 776 1365.22 766.365 1379.89 750.914C1387.79 756.63 1397.5 760 1408 760C1434.51 760 1456 738.51 1456 712C1456 685.49 1434.51 664 1408 664C1403.93 664 1399.98 664.506 1396.21 665.459C1384.3 635.88 1355.34 615 1321.5 615C1277.04 615 1241 651.041 1241 695.5C1241 698.714 1241.19 701.884 1241.55 705H1218C1204.75 705 1194 715.745 1194 729C1194 742.255 1204.75 753 1218 753H1265.16C1279.68 767.228 1299.57 776 1321.5 776Z" fill="white"/>
</svg>
